<?xml version="1.0" encoding="utf-8"?>
<!-- Generator: Adobe Illustrator 24.1.2, SVG Export Plug-In . SVG Version: 6.00 Build 0)  -->
<svg version="1.1" id="_x2014_ÎÓÈ_x5F_1" xmlns="http://www.w3.org/2000/svg" xmlns:xlink="http://www.w3.org/1999/xlink"
	 x="0px" y="0px" viewBox="0 0 1055 330" style="enable-background:new 0 0 1055 330;" xml:space="preserve">
<style type="text/css">
	.st0{fill:#4C4C4C;}
	.st1{fill:#777777;}
	.st2{fill:#636363;}
	.st3{fill:#787878;}
	.st4{fill:#444444;}
	.st5{fill:#0F0F0F;}
	.st6{fill:#1D1D1D;}
	.st7{fill:#FFFFFF;}
	.st8{fill:#343434;}
	.st9{fill:#171717;}
	.st10{fill:#6B6B6B;}
	.st11{fill:#4A4A4A;}
	.st12{fill:#0A0A0A;}
	.st13{fill:#2D2D2D;}
	.st14{fill:#020202;}
	.st15{fill:#323232;}
	.st16{fill:#5D5D5D;}
	.st17{fill:#090909;}
	.st18{fill:#656565;}
	.st19{fill:#686868;}
	.st20{fill:#121212;}
	.st21{fill:#727272;}
	.st22{fill:#535353;}
	.st23{fill:#1C1C1C;}
	.st24{fill:#262626;}
	.st25{fill:#414141;}
	.st26{fill:#3D3D3D;}
	.st27{fill:#2A2A2A;}
</style>
<g>
	<g>
		<path class="st0" d="M521.75,224.46l6.59,4.28c-3.21,3.94-7.35,8.83-8.58,9.97c-1.18,1.01-12.28,2.35-21.16,0.96
			c-1.95-0.31-3.55-0.72-4.8-1.22l-0.01-0.79l21.71-5.05c0.93-0.22,1.73-0.8,2.23-1.61L521.75,224.46z"/>
	</g>
	<path class="st1" d="M522.18,223.73c8.72-14.27,8.79-14.32,8.84-14.37c1.75-1.5,4.27-1.38,6.42,0.32c2.17,1.71,3.61,4.9,2.17,7.69
		c-0.71,1.35-5.9,8-8.32,11.07c-0.7,0.89-1.96,1.08-2.89,0.45l-6.64-4.46L522.18,223.73z"/>
</g>
<g>
	<path class="st2" d="M164.14,317.69c-2.49-9.71-6.46-20.55-9.35-27.94c-0.53-1.37-1.01-2.61-1.44-3.77
		c-0.12-0.34-0.22-0.69-0.32-1.05l-0.07-0.26l0-0.1l0-0.29c0-0.16-0.01-0.33,0-0.5c0.02-0.45,0.08-0.93,0.17-1.47l-8.95-2.69
		c-0.18,3.2,0.31,5.83,0.72,6.89c1.07,2.74,2.56,5.67,4.45,9.38c2.48,4.87,5.57,10.93,8.93,19.09c1.05,2.54,2.34,5.68,3.26,6.87
		c0.79,1.03,1.54,1.5,2.02,1.28C164.29,322.77,164.9,320.68,164.14,317.69z"/>
</g>
<g>
	<path class="st2" d="M191.76,248.77c0.26,0.6,0.65,1.17,1.15,1.67c0.23,0.23,0.66,0.12,0.6-0.15c-0.07-0.32-0.36-1.15-0.02-1.3
		c0.17-0.07,0.38,0.1,0.49,0.25c0.52,0.69,1.02,1.39,1.49,2.09c0.31,0.45,0.47,0.57,1.14,0.65c1.02,0.12,1.62,0.1,2.01-0.84
		c0.34-0.84,0.4-2.16,0.02-2.92c-0.73-1.46-4.19-3.21-6.02-3.32c-0.95-0.06-2.25,0.39-1.78,1.34
		C191.69,247.96,191.28,247.68,191.76,248.77z"/>
	<path class="st3" d="M165.79,205.85c-7.73-1.27-9.71,10.76-1.95,12.03c4.04,0.66,8.53,1.93,12.03,3.33
		c0.09,0.03,0.18,0.08,0.27,0.11l3.74-9.58C175.46,209.27,169.75,206.5,165.79,205.85z"/>
	<path class="st2" d="M176.43,220.23l2.81-7.13c6.6,3.81,6.83,4.83,12.85,23.53c1.28,3.99,1.75,6.46,2.58,9.21
		c-0.49,0.9-1.73,1.65-2.65,2.17l-0.56,0.31l-0.66-2.13c-1.94-6.43-6.49-21.48-13.98-25.73L176.43,220.23z"/>
</g>
<polygon class="st4" points="115.67,330.89 113.47,330.89 112.61,327.23 116.68,327.23 "/>
<g>
	<path class="st5" d="M107.57,331.27c0-1.53,1.08-2.78,2.43-2.8h-1.22c-0.02,0-0.05,0-0.07,0c-1.36,0-2.46,1.26-2.46,2.8
		c0,1.55,1.1,2.8,2.46,2.8c0.04,0,1.29,0,1.29,0C108.65,334.05,107.57,332.81,107.57,331.27z"/>
	<path class="st6" d="M112.49,331.27c0-1.51-1.05-2.73-2.36-2.79c-1.48,0.01-2.56,1.26-2.56,2.79c0,1.53,1.08,2.77,2.42,2.8
		C111.41,334.04,112.49,332.8,112.49,331.27z"/>
	<path class="st5" d="M111.71,331.29c0-1.04-0.72-1.88-1.62-1.92c-1.02,0.01-1.76,0.86-1.76,1.92c0,1.05,0.74,1.91,1.66,1.92
		C110.97,333.19,111.71,332.34,111.71,331.29z"/>
</g>
<path class="st4" d="M120.11,332.26h-9.46c-0.44,0-0.81-0.36-0.81-0.81c0-0.44,0.36-0.81,0.81-0.81h9.46c0.44,0,0.81,0.36,0.81,0.81
	C120.91,331.9,120.55,332.26,120.11,332.26z"/>
<g>
	<path class="st5" d="M118.38,331.27c0-1.53,1.08-2.78,2.43-2.8h-1.22c-0.02,0-0.05,0-0.07,0c-1.36,0-2.46,1.26-2.46,2.8
		c0,1.55,1.1,2.8,2.46,2.8c0.04,0,1.29,0,1.29,0C119.46,334.05,118.38,332.81,118.38,331.27z"/>
	<path class="st6" d="M123.3,331.27c0-1.51-1.05-2.73-2.36-2.79c-1.48,0.01-2.56,1.26-2.56,2.79c0,1.53,1.08,2.77,2.42,2.8
		C122.22,334.04,123.3,332.8,123.3,331.27z"/>
	<path class="st5" d="M122.53,331.29c0-1.04-0.72-1.88-1.62-1.92c-1.02,0.01-1.76,0.86-1.76,1.92c0,1.05,0.74,1.91,1.66,1.92
		C121.79,333.19,122.53,332.34,122.53,331.29z"/>
</g>
<polygon class="st4" points="183,331.07 180.8,331.07 179.93,327.4 184.01,327.4 "/>
<g>
	<path class="st5" d="M174.89,331.45c0-1.53,1.08-2.78,2.43-2.8h-1.22c-0.02,0-0.05,0-0.07,0c-1.36,0-2.46,1.26-2.46,2.8
		c0,1.55,1.1,2.8,2.46,2.8c0.04,0,1.29,0,1.29,0C175.97,334.22,174.89,332.98,174.89,331.45z"/>
	<path class="st6" d="M179.81,331.45c0-1.51-1.05-2.73-2.36-2.79c-1.48,0.01-2.56,1.26-2.56,2.79c0,1.53,1.08,2.77,2.42,2.8
		C178.74,334.22,179.81,332.98,179.81,331.45z"/>
	<path class="st5" d="M179.04,331.46c0-1.04-0.72-1.88-1.62-1.92c-1.02,0.01-1.76,0.86-1.76,1.92c0,1.05,0.74,1.91,1.66,1.92
		C178.3,333.36,179.04,332.51,179.04,331.46z"/>
</g>
<path class="st4" d="M187.43,332.44h-9.46c-0.44,0-0.81-0.36-0.81-0.81c0-0.44,0.36-0.81,0.81-0.81h9.46c0.44,0,0.81,0.36,0.81,0.81
	C188.24,332.08,187.88,332.44,187.43,332.44z"/>
<g>
	<path class="st5" d="M185.71,331.45c0-1.53,1.08-2.78,2.43-2.8h-1.22c-0.02,0-0.05,0-0.07,0c-1.36,0-2.46,1.26-2.46,2.8
		c0,1.55,1.1,2.8,2.46,2.8c0.04,0,1.29,0,1.29,0C186.79,334.22,185.71,332.98,185.71,331.45z"/>
	<path class="st6" d="M190.63,331.45c0-1.51-1.05-2.73-2.36-2.79c-1.48,0.01-2.56,1.26-2.56,2.79c0,1.53,1.08,2.77,2.42,2.8
		C189.55,334.22,190.63,332.98,190.63,331.45z"/>
	<path class="st5" d="M189.85,331.46c0-1.04-0.72-1.88-1.62-1.92c-1.02,0.01-1.76,0.86-1.76,1.92c0,1.05,0.74,1.91,1.66,1.92
		C189.11,333.36,189.85,332.51,189.85,331.46z"/>
</g>
<path class="st4" d="M196.8,327.67h-96.75c-0.77,0-1.4-0.63-1.4-1.4s0.63-1.4,1.4-1.4h96.75c0.77,0,1.4,0.63,1.4,1.4
	S197.57,327.67,196.8,327.67z"/>
<g>
	<ellipse class="st2" cx="154.94" cy="188.79" rx="7.79" ry="6.79"/>
	<path class="st2" d="M145.18,194.2l1.3-3.04l0.98,4.62l-1.77-0.49C145.24,195.16,144.99,194.65,145.18,194.2z"/>
	<path class="st2" d="M157.44,196.15l-0.46-0.86c0.6-0.32,1.02-1.05,1.01-1.9c-0.01-1.14-0.78-2.07-1.73-2.06
		c-0.08,0-0.14,0.04-0.22,0.05c0-0.05-0.41-2.2-4.03-4.52l-3.39-1.98c-0.85,0.73-1.38,1.95-1.79,3.05
		c-0.29,0.77-0.49,1.59-0.48,2.47l0.43,5.42c0.32,5.17,2.91,6.3,5.99,6.72l5.97-4.19L157.44,196.15z"/>
	<path class="st2" d="M158.49,198.76l-0.33-0.4l-5.87,4.04c0.13,0.02,0.27,0.06,0.4,0.07l1.57,6.46c0.15,0.62,0.78,1.12,1.39,1.11
		l4.48-0.02c0.62,0,1-0.51,0.85-1.13l-2.47-10.15C158.49,198.74,158.49,198.75,158.49,198.76z"/>
	<path class="st7" d="M149.42,196.73c-0.03,0.43-0.2,0.96-0.89,1.11c0,0-1.02,0.18-0.93-0.84L149.42,196.73z"/>
	<path class="st8" d="M148.12,189.63h1.5c0.22,0,0.4,0.18,0.4,0.4c0,0.22-0.18,0.4-0.4,0.4h-1.5c-0.22,0-0.4-0.18-0.4-0.4
		C147.72,189.81,147.9,189.63,148.12,189.63z"/>
	<g>
		<path class="st8" d="M151.18,184.57c0.02-0.89,0.73-1.61,1.62-1.67c4.37-0.27,14.21,1.44,8.16,13.41
			c-0.5,0.99-1.16,1.81-1.97,2.42c-0.01,0.01-0.37,0.3-0.38,0.3c-2.2-1.6-1.67-3.72-1.67-3.72c0.62-0.32,1.05-1.05,1.05-1.92
			c-0.01-1.14-0.78-2.07-1.73-2.06c-0.08,0-0.14,0.04-0.22,0.05c-0.31-1.68-2.81-3.88-4.34-4.69
			C151.38,186.11,151.15,185.76,151.18,184.57z"/>
	</g>
	<path class="st9" d="M147.95,191.3c0,0.39,0.21,0.71,0.46,0.71c0.25,0,0.46-0.32,0.46-0.71c0-0.39-0.21-0.71-0.46-0.71
		C148.16,190.59,147.95,190.91,147.95,191.3z"/>
</g>
<path class="st5" d="M183.34,259.16c-1.19-4.58-2.22-8.54-3.33-10.95l-0.54-1.19l-15.74,5.81l0.46,1.3
	c3.14,8.98,8.58,23.86,13.64,32.62c0.67,1.16,2.17,1.54,3.33,0.87l8.1-4.68c1.12-0.65,1.54-2.06,0.96-3.22
	C187.37,274.06,185.81,268.65,183.34,259.16z"/>
<g>
	<path class="st2" d="M226.54,273.47c-0.23-0.62-1.16-1.29-2.65-1.29c-0.52,0-1.05,0.08-1.58,0.24c-0.4,0.12-0.8,0.24-1.19,0.37
		c-6.47,2.02-12.46,4.74-18.81,7.62c-1.5,0.68-3.01,1.37-4.53,2.04c-1.3,0.58-2.49,1.1-3.6,1.56c-0.93,0.39-1.95,0.71-3.04,0.95
		l-0.92,0.2l-0.53-0.78c-0.26-0.37-0.52-0.78-0.79-1.23l-7.34,4.24c0.62,0.81,1.3,1.57,2.07,2.33c0.34,0.35,0.64,0.64,0.93,0.9
		c1.89,1.67,4.51,2.33,7.02,1.75c1.71-0.4,2.22-0.58,2.36-0.64c2.66-1.18,5.57-2.74,9.24-4.71c4.61-2.48,10.35-5.56,17.93-9.1
		c0.77-0.36,1.56-0.73,2.38-1.1c0.83-0.38,1.52-0.81,2.07-1.28C225.97,275.19,226.85,274.3,226.54,273.47z"/>
</g>
<path class="st5" d="M156.47,239.9c-4.03,8.58-12.6,27.62-14.22,38.22c-0.14,0.91,0.41,1.78,1.3,2.04l9.58,2.88
	c0.99,0.3,2.03-0.28,2.3-1.28c2.66-9.98,10.79-24.66,15.3-32.21l0.73-1.23L156.47,239.9z"/>
<path class="st10" d="M155.43,243.96c-0.42,1.97,0.34,5.31,1.2,8.39c0.76,2.73,3.51,5.34,6.49,6.14c0,0,13.78,3.88,17.16,3.79
	c3.63-0.1,7.56-0.01,9.4-2.87c0.38-0.59-0.56-2.83-1.03-3.6c-13.92-23.22-5.61-20.99-9.75-31.92c-2.72-7.02-7.12-13.4-9.2-15.28
	c-3.08-2.79-7.86-5.02-11.21-4.97c-3.09,0.05-7.18,12.2-6.68,14.71C153.93,228.8,159.75,223.75,155.43,243.96z"/>
<g>
	<path class="st2" d="M118.18,236.25c-0.64,0.15-1.26,0.43-1.85,0.84c-0.26,0.18-0.24,0.63,0.04,0.62c0.33-0.01,1.2-0.15,1.28,0.21
		c0.04,0.18-0.17,0.35-0.33,0.44c-0.77,0.39-1.54,0.76-2.32,1.1c-0.5,0.22-0.64,0.37-0.84,1.01c-0.3,0.98-0.38,1.58,0.48,2.12
		c0.77,0.48,2.06,0.77,2.87,0.53c1.56-0.47,3.89-3.56,4.32-5.34c0.22-0.92,0.01-2.28-1.01-1.99
		C118.99,236.32,119.34,235.97,118.18,236.25z"/>
	<path class="st3" d="M165,218.24c2.61-7.39-8.88-11.45-11.5-4.04c-1.36,3.86-3.4,8.05-5.39,11.26c-0.05,0.08-0.11,0.16-0.16,0.24
		l8.78,5.36C159.93,227.15,163.66,222.02,165,218.24z"/>
	<path class="st2" d="M148.97,226.18l6.53,4.02c-4.91,5.82-5.96,5.88-25.42,8.51c-4.15,0.56-6.67,0.59-9.52,0.92
		c-0.79-0.64-1.32-2-1.67-2.99l-0.21-0.61l2.22-0.27c6.67-0.78,22.29-2.61,27.79-9.23L148.97,226.18z"/>
</g>
<path class="st8" d="M150.92,188.67c0.96,1.02,1.89,2.22,1.94,3.62c0.02,0.42-0.05,0.84,0.01,1.25s0.29,0.84,0.68,0.97
	c0.29,0.1,0.62,0.02,0.91-0.11c0.6-0.26,1.11-0.7,1.68-1.03c0.57-0.33,1.25-0.57,1.88-0.38c-1.08-0.95-2.13-1.93-3.17-2.93
	c-0.33-0.32-0.65-0.64-1.03-0.88c-0.38-0.24-0.81-0.41-1.25-0.49L150.92,188.67z"/>
<g>
	<g>
		<g>
			<g>
				<path class="st11" d="M161.04,180.93c3.76,0.44,5.44,6.3,4.47,9.94c-0.07,0.6-0.79,1.26-0.92,2.6c-0.1,1-0.79,1.84-1.77,2.02
					c-3.07,0.57-6.14-0.17-8.25-3.63c0,0-3.43-3.14-6.55-4.54c-0.62-0.28-0.8-1.07-0.43-1.65
					C150.63,180.9,156.22,180.37,161.04,180.93z"/>
			</g>
		</g>
	</g>
</g>
<g>
	<path class="st11" d="M227.74,278.46l-6.27-4.74c-0.31-0.23-0.45-0.68-0.28-0.89l2.72-3.31c0.16-0.19,0.5-0.08,0.72,0.24l4.56,6.58
		C230.38,278.06,229.3,279.65,227.74,278.46z"/>
</g>
<g>
	<path class="st11" d="M156.29,322.45l7.47-2.45c0.37-0.12,0.82,0.02,0.89,0.28l1.17,4.12c0.07,0.24-0.22,0.46-0.61,0.46l-8,0
		C155.11,324.85,154.42,323.06,156.29,322.45z"/>
</g>
<g>
	<path class="st2" d="M34.19,189.13l-0.46-0.86c0.6-0.32,1.02-1.05,1.01-1.9c-0.01-1.14-0.78-2.07-1.73-2.06
		c-0.08,0-0.14,0.04-0.22,0.05c0-0.05-0.16-0.84-1.07-1.97l-8.16-1.41c-0.28,0.75-0.46,1.55-0.46,2.4l0.43,5.42
		c0.32,5.17,2.91,6.3,5.99,6.72l5.97-4.19L34.19,189.13z"/>
	<path class="st2" d="M21.93,187.18l1.3-3.04l0.98,4.62l-1.77-0.49C21.98,188.14,21.74,187.63,21.93,187.18z"/>
	<g>
		<path class="st5" d="M28.76,179.84l-2.99-2.48c-0.85,0.73-1.77,2.46-2.19,3.55c-0.01,0.02-0.01,0.05-0.02,0.08l8.16,1.41
			C31.12,181.65,30.2,180.76,28.76,179.84z"/>
	</g>
	<path class="st2" d="M35.23,191.74l-0.33-0.4l-5.87,4.04c0.13,0.02,0.27,0.06,0.4,0.07l1.57,6.46c0.15,0.62,0.78,1.12,1.39,1.11
		l4.48-0.02c0.62,0,1-0.51,0.85-1.13l-2.47-10.15C35.23,191.72,35.23,191.73,35.23,191.74z"/>
	<path class="st7" d="M26.16,189.71c-0.03,0.43-0.2,0.96-0.89,1.11c0,0-1.02,0.18-0.93-0.84L26.16,189.71z"/>
	<path class="st9" d="M24.86,182.61h1.5c0.22,0,0.4,0.18,0.4,0.4c0,0.22-0.18,0.4-0.4,0.4h-1.5c-0.22,0-0.4-0.18-0.4-0.4
		C24.46,182.79,24.64,182.61,24.86,182.61z"/>
	<g>
		<path class="st9" d="M27.92,177.55c0.02-0.89,0.73-1.61,1.62-1.67c4.37-0.27,14.21,1.44,8.16,13.41c-0.5,0.99-1.16,1.81-1.97,2.42
			c-0.01,0.01-0.37,0.3-0.38,0.3c-2.2-1.6-1.67-3.72-1.67-3.72c0.62-0.32,1.05-1.05,1.05-1.92c-0.01-1.14-0.78-2.07-1.73-2.06
			c-0.08,0-0.14,0.04-0.22,0.05c-0.31-1.68-2.81-3.88-4.34-4.69C28.12,179.09,27.89,178.74,27.92,177.55z"/>
	</g>
	<ellipse class="st9" cx="25.15" cy="184.28" rx="0.46" ry="0.71"/>
</g>
<g>
	<path class="st5" d="M28.65,182.14c-5.21,0-10.35-3.91-10.61-4.11c-0.23-0.18-0.27-0.51-0.09-0.73c0.18-0.23,0.51-0.27,0.73-0.09
		c0.07,0.05,7.23,5.51,12.76,3.41c0.27-0.1,0.57,0.03,0.67,0.3c0.1,0.27-0.03,0.57-0.3,0.67C30.79,181.98,29.72,182.14,28.65,182.14
		z"/>
</g>
<path class="st10" d="M41.33,201.49c0,0,35.58-5.23,8.72,40.12C50.05,241.61,27.38,224.34,41.33,201.49z"/>
<g>
	<path class="st12" d="M38.96,312.46h-0.24c0.08,0,0.16,0.03,0.24,0.04V312.46z"/>
	<path class="st4" d="M30.12,325.61c0-7.21,3.74-13.06,8.37-13.16h-4.21c-0.08,0.02-0.16-0.02-0.25-0.02
		c-4.69,0-8.49,5.9-8.49,13.17c0,7.28,3.8,13.17,8.49,13.17c0.04,0,0.08-0.02,0.13-0.02h4.31
		C33.84,338.65,30.12,332.82,30.12,325.61z"/>
	<path class="st13" d="M47.09,325.61c0-7.09-3.61-12.83-8.13-13.12c-0.08-0.01-0.15-0.04-0.24-0.04c-0.04,0-0.08-0.02-0.12-0.02
		c-0.04,0-0.08,0.02-0.12,0.02c-4.63,0.1-8.37,5.94-8.37,13.16c0,7.2,3.73,13.04,8.35,13.15c0.05,0,0.09,0.02,0.14,0.02
		c0.05,0,0.09-0.02,0.14-0.02C43.37,338.63,47.09,332.8,47.09,325.61z"/>
	<path class="st5" d="M44.42,325.67c0-4.87-2.48-8.81-5.59-9.02c-0.05,0-0.11-0.02-0.16-0.03c-0.03,0-0.05-0.01-0.08-0.01
		c-0.03,0-0.05,0.01-0.08,0.01c-3.18,0.07-5.75,4.08-5.75,9.04c0,4.95,2.56,8.96,5.74,9.04c0.03,0,0.06,0.01,0.09,0.01
		c0.03,0,0.06-0.01,0.1-0.01C41.87,334.61,44.42,330.61,44.42,325.67z"/>
</g>
<g>
	<path class="st2" d="M12.66,250.97c-0.32,0.57-0.54,1.22-0.63,1.93c-0.04,0.32,0.3,0.6,0.48,0.39c0.22-0.25,0.7-0.98,1.02-0.8
		c0.16,0.09,0.15,0.36,0.09,0.54c-0.23,0.83-0.49,1.65-0.76,2.46c-0.18,0.52-0.16,0.72,0.17,1.3c0.52,0.89,0.91,1.35,1.88,1.09
		c0.87-0.24,1.96-0.99,2.34-1.75c0.72-1.47,0.02-5.28-1-6.8c-0.53-0.79-1.67-1.55-2.14-0.61C13.27,250.41,13.24,249.92,12.66,250.97
		z"/>
	<path class="st2" d="M14.15,248.63l-1.36,2.17l0.65-0.1c0.97,0.42,2.32,0.95,3.33,0.8c0.71-0.98,1.42-1.88,2.18-2.84l-3.25-2.19
		C15.13,247.27,14.6,248.01,14.15,248.63z"/>
	<path class="st4" d="M34.86,219.23l-0.2-1.61l-10.1,2.85l0.22,1.65c0.92,6.81-5.6,16.94-10,23.23c-0.57,0.82-0.36,1.94,0.47,2.5
		l2.61,1.76c0.78,0.53,1.84,0.36,2.41-0.39C36.59,228.3,35.62,225.18,34.86,219.23z"/>
</g>
<path class="st9" d="M27.66,181.65c0.96,1.02,1.89,2.22,1.94,3.62c0.02,0.42-0.05,0.84,0.01,1.25c0.06,0.41,0.29,0.84,0.68,0.97
	c0.29,0.1,0.62,0.02,0.91-0.11c0.6-0.26,1.11-0.7,1.68-1.03c0.57-0.33,1.25-0.57,1.88-0.38c-1.08-0.95-2.13-1.93-3.17-2.93
	c-0.33-0.32-0.65-0.64-1.03-0.88c-0.38-0.24-0.81-0.41-1.25-0.49L27.66,181.65z"/>
<path class="st3" d="M27.6,174.37c-1.16,0.53-2.39,2.29-1.97,3.23c2.15,4.72,4.25,13.36,4.25,13.36c3.6,11.81,2.02,11.52,5.77,12.31
	c1.21,0.25,2.65,0.49,3.58-1.43c1.25-2.55,4.31,2.01,4.88,0.87C55.93,189.98,38.02,169.63,27.6,174.37z"/>
<g>
	<polygon class="st11" points="51.24,313.29 53.27,319.46 49.31,320.23 47.1,314.11 	"/>
	<g>
		<path class="st10" d="M44.7,320.85l7.47-2.45c0.37-0.12,0.82,0.02,0.89,0.28l1.17,4.12c0.07,0.24-0.22,0.46-0.61,0.46h-8
			C43.52,323.26,42.83,321.47,44.7,320.85z"/>
	</g>
</g>
<path class="st5" d="M33.29,244.7c3.49,2.01,7.23,3.88,9.52,4.16l0.03,2.34c0.13,9.63,1.37,22.68,3.32,34.89
	c2.54,15.96,5.01,23.65,6.31,28.09c0.47,1.61-0.56,2.84-2.16,2.6l-6.55-0.98c-1.28-0.19-2.5-1.27-2.87-2.55
	c-2.79-9.58-5.31-19.24-7.57-28.8c-2.94-12.43-5.76-25.6-7.34-35.4l0.13-0.27C25.51,244.73,29.36,242.44,33.29,244.7z"/>
<g>
	<polygon class="st11" points="60.11,313.46 62.13,319.63 58.17,320.41 55.97,314.28 	"/>
	<g>
		<path class="st10" d="M53.57,321.03l7.47-2.45c0.37-0.12,0.82,0.02,0.89,0.28l1.17,4.12c0.07,0.24-0.22,0.46-0.61,0.46h-8
			C52.39,323.43,51.7,321.64,53.57,321.03z"/>
	</g>
</g>
<path class="st5" d="M40.77,244.89c3.6,1.8,7.45,3.45,9.74,3.6l0.17,2.33c0.69,9.61,2.69,22.56,5.34,34.64
	c3.47,15.78,6.38,23.32,7.93,27.67c0.56,1.58-0.39,2.87-2.01,2.72l-6.6-0.59c-1.29-0.12-2.57-1.12-3.02-2.38
	c-3.34-9.4-6.42-18.9-9.23-28.31c-3.66-12.23-7.24-25.22-9.39-34.91l0.11-0.28C33,245.36,36.71,242.86,40.77,244.89z"/>
<g>
	<path class="st14" d="M55.29,315.66c-1.46-0.13-2.85-1.23-3.34-2.61c-3.23-9.09-6.34-18.62-9.24-28.33
		c-3.06-10.21-5.71-19.78-7.67-27.68c-0.05-0.19,0.07-0.38,0.25-0.42c0.19-0.06,0.37,0.07,0.42,0.25
		c1.96,7.89,4.61,17.45,7.67,27.65c2.9,9.7,6,19.22,9.23,28.3c0.4,1.12,1.57,2.05,2.72,2.15c0.19,0.02,0.33,0.19,0.32,0.38
		C55.62,315.52,55.47,315.66,55.29,315.66z"/>
</g>
<path class="st4" d="M50.37,239.84c-6.54-19.86,0.05-22.09-0.91-32.54c-0.29-3.18,2.18-4.75-8.01-6.96c0,0-2.95-0.78-6.05-0.83
	c-4.44-0.07-8.76,1.95-10.7,6.32c-1.68,3.78-3.35,11.29-2.27,15.7c6,24.53,0.41,26.02,5.47,35.26c1.97,3.61,23.91-1.97,23.91-1.97
	C54.88,254.27,53.68,249.9,50.37,239.84z"/>
<g>
	<path class="st13" d="M28.08,256.96c-0.12,0-0.24-0.07-0.31-0.18c-2.46-4.49-2.44-7.26-2.42-11.45c0.02-4.69,0.05-11.11-3.07-23.89
		c-0.56-2.31-0.34-5.18-0.06-7.2c0.03-0.19,0.19-0.32,0.4-0.3c0.19,0.03,0.32,0.2,0.3,0.4c-0.39,2.79-0.37,5.19,0.05,6.93
		c3.15,12.86,3.12,19.34,3.09,24.06c-0.02,4.23-0.03,6.78,2.34,11.12c0.09,0.17,0.03,0.38-0.14,0.47
		C28.19,256.94,28.13,256.96,28.08,256.96z"/>
</g>
<path class="st11" d="M17.97,254.71l-0.78-2.83c-0.08-0.3-0.39-0.47-0.69-0.39l-6.83,1.88c-0.3,0.08-0.47,0.39-0.39,0.69l0.78,2.84
	c0.08,0.3,0.39,0.47,0.69,0.39l6.83-1.88C17.88,255.31,18.05,255.01,17.97,254.71z"/>
<g>
	<path class="st11" d="M29.64,193.68c-1.44,2.26-3.09,4.44-4.68,6.56c-1.35,1.79-2.74,3.65-4.01,5.54
		c-3.4,5.07-5.16,9.44-5.54,13.75c-0.42,4.69,0.87,9.33,2.11,13.81c0.98,3.54,2,7.2,2.18,10.88c0.12,2.36-0.14,6.69-3.12,9.1
		l0.22,0.27c3.1-2.5,3.36-6.95,3.25-9.38c-0.18-3.72-1.2-7.4-2.19-10.96c-1.24-4.45-2.51-9.06-2.1-13.69
		c0.38-4.25,2.12-8.57,5.48-13.59c1.26-1.89,2.66-3.74,4-5.52c1.59-2.12,3.24-4.3,4.69-6.58c0.17-0.27,0.35-0.56,0.53-0.87
		l-0.13-0.47C30.1,192.94,29.87,193.33,29.64,193.68z"/>
</g>
<path class="st2" d="M26.45,212.83c-0.42-0.51-0.94-0.94-1.57-1.29c-0.28-0.16-0.67,0.06-0.54,0.31c0.15,0.29,0.66,1.01,0.38,1.24
	c-0.14,0.12-0.39,0-0.54-0.11c-0.69-0.52-1.36-1.05-2.01-1.6c-0.42-0.35-0.61-0.41-1.27-0.31c-1.01,0.16-1.59,0.35-1.7,1.36
	c-0.1,0.9,0.21,2.19,0.79,2.81c1.11,1.2,4.91,1.93,6.7,1.53c0.93-0.21,2.05-1,1.34-1.78C26.75,213.59,27.21,213.75,26.45,212.83z"/>
<path class="st3" d="M63.95,326.73H39.53c-1.02,0-1.86-0.84-1.86-1.86c0-1.02,0.84-1.86,1.86-1.86h24.42c1.02,0,1.86,0.84,1.86,1.86
	C65.81,325.89,64.97,326.73,63.95,326.73z"/>
<g>
	<path class="st12" d="M68.96,312.8h-0.24c0.08,0,0.16,0.03,0.24,0.04V312.8z"/>
	<path class="st4" d="M60.12,325.96c0-7.21,3.74-13.06,8.37-13.16h-4.21c-0.08,0.02-0.16-0.02-0.25-0.02
		c-4.69,0-8.49,5.9-8.49,13.17c0,7.28,3.8,13.17,8.49,13.17c0.04,0,0.08-0.02,0.13-0.02h4.31C63.84,339,60.12,333.16,60.12,325.96z"
		/>
	<path class="st13" d="M77.09,325.96c0-7.09-3.61-12.83-8.13-13.12c-0.08-0.01-0.15-0.04-0.24-0.04c-0.04,0-0.08-0.02-0.12-0.02
		c-0.04,0-0.08,0.02-0.12,0.02c-4.63,0.1-8.37,5.94-8.37,13.16c0,7.2,3.73,13.04,8.35,13.15c0.05,0,0.09,0.02,0.14,0.02
		c0.05,0,0.09-0.02,0.14-0.02C73.38,338.97,77.09,333.15,77.09,325.96z"/>
	<path class="st5" d="M74.43,326.02c0-4.87-2.48-8.81-5.59-9.02c-0.05,0-0.11-0.02-0.16-0.03c-0.03,0-0.05-0.01-0.08-0.01
		c-0.03,0-0.05,0.01-0.08,0.01c-3.18,0.07-5.75,4.08-5.75,9.04c0,4.95,2.56,8.96,5.74,9.04c0.03,0,0.06,0.01,0.09,0.01
		c0.03,0,0.06-0.01,0.1-0.01C71.87,334.96,74.43,330.96,74.43,326.02z"/>
</g>
<g>
	<path class="st10" d="M50,237.89c-0.18,0-0.35-0.07-0.49-0.2c-12.76-12.59-17.93-22.21-15.36-28.58c2.86-7.1,14.08-7.32,14.56-7.32
		c0.39,0,0.7,0.31,0.71,0.69c0,0.38-0.3,0.7-0.69,0.71c-0.11,0-10.77,0.21-13.28,6.45c-2.3,5.72,2.9,15.08,15.05,27.06
		c0.27,0.27,0.28,0.71,0.01,0.99C50.36,237.82,50.18,237.89,50,237.89z"/>
</g>
<g>
	<path class="st2" d="M28.52,215.38c-0.74-0.85-1.41-1.49-2.01-1.99l-1.67,1.38c0.07,0.13,0.13,0.26,0.2,0.41
		c0.45,0.86,1.32,2.27,2.46,3.98l2.69-2C29.59,216.56,29.02,215.96,28.52,215.38z"/>
	<path class="st4" d="M49.71,205.5c-0.05-0.17-0.12-0.3-0.17-0.46l-10.2,2.23c-0.01,0.35-0.02,0.7,0.01,1.08
		c0.36,4.39,0.91,8.46,1.5,13.78c0,0,0.22,2.89,0.25,3.25c-1.71-1.82-3.8-3.8-5.66-5.55c-1.36-1.28-2.78-2.63-4.01-3.88l-1.06-1.08
		l-5.24,3.89l0.92,1.38c3.03,4.56,9.01,12.83,13.12,16.96c0.95,0.92,2.21,1.44,3.53,1.44c0.13,0,0.27-0.01,0.41-0.02
		c1.49-0.12,2.85-0.87,3.74-2.07c1.45-1.96,4.31-10.08,4.31-10.08C52.59,219.25,51.86,212.92,49.71,205.5L49.71,205.5z"/>
</g>
<g>
	<g>
		<path class="st13" d="M42.81,238.76c-1.42,0-2.76-0.55-3.78-1.54c-4.11-4.13-10.12-12.44-13.16-17.01l-1.1-1.66l5.76-4.26
			l1.28,1.3c1.19,1.21,2.57,2.52,4,3.87c1.69,1.59,3.45,3.27,4.99,4.85c-0.08-0.97-0.18-2.27-0.18-2.27
			c-0.19-1.75-0.38-3.37-0.57-4.92c-0.37-3.18-0.69-5.92-0.93-8.87c-0.02-0.19,0.13-0.36,0.32-0.38c0.18-0.02,0.36,0.13,0.38,0.32
			c0.24,2.93,0.56,5.67,0.93,8.84c0.18,1.54,0.37,3.17,0.57,4.93c0,0.01,0.22,2.89,0.26,3.25l0.1,1.01l-0.7-0.74
			c-1.67-1.78-3.71-3.71-5.64-5.54c-1.43-1.35-2.82-2.67-4.02-3.89l-0.85-0.87l-4.73,3.51l0.73,1.1c3.03,4.56,9,12.82,13.07,16.91
			c0.97,0.95,2.27,1.44,3.67,1.32c1.39-0.11,2.67-0.81,3.49-1.93c0.48-0.65,1.21-2.15,2.11-4.35c0.07-0.18,0.27-0.26,0.46-0.19
			c0.18,0.07,0.26,0.28,0.19,0.46c-0.94,2.29-1.68,3.8-2.2,4.5c-0.94,1.28-2.4,2.08-3.99,2.21
			C43.1,238.76,42.96,238.76,42.81,238.76z"/>
	</g>
</g>
<g>
	<path class="st5" d="M302.3,298.63l10.77-3.76c0.44-0.15,0.95-0.12,1.34,0.08c0.27,0.14,0.46,0.35,0.54,0.6l1.81,5.94
		c0.08,0.26,0.03,0.52-0.13,0.75c-0.23,0.32-0.67,0.52-1.16,0.53c0,0-11.61,0.22-11.62,0.22c-2.07,0.04-3.2-1.01-3.38-1.99
		C300.33,300.21,300.74,299.18,302.3,298.63z"/>
	<path class="st5" d="M234.02,311.55c0.01,0.59,0.04,1.17,0.07,1.74c0.01,0.14,0.02,0.29,0.04,0.43l0.04,0.44
		c0.02,0.28,0.05,0.56,0.08,0.85c0.02,0.22,0.06,0.43,0.09,0.64l0.06,0.44c0.03,0.2,0.06,0.41,0.09,0.61
		c0.04,0.25,0.09,0.5,0.14,0.76l0.07,0.36c0.04,0.19,0.07,0.38,0.11,0.57c0.05,0.25,0.12,0.5,0.18,0.75l0.07,0.3
		c0.05,0.21,0.1,0.42,0.16,0.63c0.07,0.24,0.14,0.49,0.21,0.73l0.03,0.1c0.1,0.33,0.17,0.59,0.26,0.85
		c0.06,0.19,0.13,0.37,0.19,0.56l0.05,0.15c0.11,0.32,0.22,0.64,0.34,0.95c0.05,0.14,0.11,0.28,0.16,0.41l0.06,0.14
		c0.14,0.36,0.29,0.72,0.44,1.07l0.18,0.4c0.18,0.4,0.37,0.8,0.57,1.19l0.12,0.24c0.22,0.44,0.46,0.88,0.7,1.31l0.05,0.09
		c1.66,2.92,3.73,5.59,6.14,7.92c0.06,0.06,0.13,0.12,0.2,0.18l0.14,0.13c0.45,0.43,0.92,0.84,1.39,1.24l0.13,0.11
		c0.19,0.16,0.37,0.32,0.56,0.47c0.53,0.43,1.08,0.84,1.63,1.23c0.27,0.2,0.55,0.38,0.83,0.57c0.43,0.29,0.88,0.57,1.32,0.84
		c0.36,0.22,0.73,0.43,1.09,0.64c0.46,0.25,0.92,0.5,1.39,0.73l0.11,0.06c0.23,0.12,0.46,0.23,0.7,0.34
		c0.65,0.31,1.31,0.59,1.96,0.85c0.14,0.06,0.29,0.11,0.43,0.16l0.18,0.07c0.63,0.23,1.26,0.45,1.91,0.65l0.36,0.11
		c0.74,0.22,1.52,0.42,2.37,0.61l0.33,0.07c1.65,0.35,3.36,0.58,5.05,0.69l0.15,0.01c1.02,0.06,1.91,0.08,2.74,0.07
		c8.77-0.16,17.11-3.56,23.48-9.6c0.38-0.35,0.76-0.72,1.12-1.1c2.32-2.41,4.29-5.13,5.84-8.11l0.07-0.13
		c0.22-0.43,0.43-0.86,0.64-1.3l0.13-0.27c0.18-0.39,0.35-0.79,0.51-1.19l0.18-0.43c0.14-0.35,0.27-0.71,0.4-1.06l0.06-0.15
		c0.05-0.15,0.11-0.29,0.16-0.44c0.11-0.31,0.2-0.62,0.3-0.94l0.05-0.15c0.06-0.19,0.12-0.38,0.17-0.58c0.07-0.25,0.14-0.5,0.2-0.75
		l0.06-0.23c0.06-0.23,0.12-0.47,0.17-0.7c0.05-0.2,0.09-0.4,0.13-0.6l0.06-0.29c0.06-0.27,0.11-0.53,0.16-0.8
		c0.03-0.19,0.06-0.37,0.09-0.56l0.06-0.36c0.04-0.26,0.08-0.52,0.12-0.78c0.03-0.2,0.05-0.4,0.07-0.6l0.05-0.46
		c0.02-0.21,0.05-0.43,0.06-0.64c0.02-0.28,0.04-0.56,0.05-0.84l0.02-0.43c0.01-0.15,0.02-0.3,0.02-0.44
		c0.02-0.58,0.02-1.16,0.01-1.74c-0.01-0.54-0.03-1.07-0.07-1.59l-0.03-0.36c-0.03-0.42-0.07-0.83-0.11-1.25l-0.05-0.39
		c-0.05-0.42-0.11-0.84-0.17-1.26l-0.05-0.32c-0.08-0.47-0.17-0.94-0.26-1.4l-0.03-0.16c-0.23-1.07-0.51-2.14-0.84-3.17l-0.07-0.2
		c-0.14-0.42-0.28-0.84-0.43-1.26l-0.17-0.46c-0.12-0.32-0.25-0.65-0.39-0.97c-0.08-0.2-0.16-0.39-0.24-0.57
		c-0.12-0.28-0.25-0.55-0.37-0.82c-0.25-0.53-0.51-1.06-0.79-1.59l-0.11-0.22c-0.17-0.32-0.36-0.64-0.54-0.96l-0.17-0.3
		c-0.2-0.33-0.4-0.66-0.61-0.99l-0.06-0.1c-1.51-2.33-3.22-4.42-5.14-6.27c-6.3-6.08-14.58-9.56-23.33-9.81
		c-0.54-0.02-1.09-0.03-1.64-0.02c-5.14,0.09-10.09,1.28-14.7,3.52l-0.07,0.04c-0.46,0.23-0.93,0.47-1.39,0.72l-0.09,0.05
		c-0.46,0.25-0.92,0.52-1.36,0.79l-0.14,0.08c-0.45,0.28-0.89,0.57-1.33,0.86l-0.12,0.08c-0.47,0.32-0.93,0.66-1.38,1
		c-2.38,1.82-4.52,3.92-6.36,6.27c-0.37,0.47-0.7,0.91-1.02,1.36l-0.22,0.33c-0.25,0.36-0.49,0.72-0.73,1.08
		c-0.07,0.1-0.13,0.21-0.2,0.32l-0.1,0.16c-0.2,0.32-0.4,0.65-0.59,0.98l-0.3,0.54c-0.18,0.32-0.35,0.64-0.52,0.97
		c-0.07,0.14-0.14,0.28-0.21,0.42l-0.06,0.13c-0.16,0.33-0.32,0.67-0.48,1.01l-0.22,0.51c-0.15,0.36-0.31,0.72-0.45,1.08l-0.17,0.46
		c-0.14,0.39-0.29,0.78-0.42,1.17l-0.13,0.4c-0.13,0.41-0.26,0.83-0.38,1.25l-0.09,0.35c-0.12,0.43-0.23,0.87-0.33,1.31l-0.07,0.33
		c-0.1,0.44-0.19,0.88-0.27,1.33l-0.06,0.37c-0.07,0.43-0.14,0.87-0.2,1.3l-0.05,0.47c-0.05,0.4-0.09,0.8-0.12,1.21
		c-0.01,0.16-0.02,0.32-0.03,0.47l-0.03,0.48c-0.02,0.25-0.03,0.49-0.04,0.74c-0.02,0.5-0.02,1.01-0.01,1.52L234.02,311.55z
		 M262.55,339.48l0.1-0.45c-0.62-0.14-1.25-0.31-1.93-0.51l-0.4-0.13c-0.5-0.16-0.99-0.33-1.48-0.51l-0.2-0.07
		c-0.09-0.03-0.19-0.07-0.28-0.1c-0.52-0.21-1.03-0.44-1.54-0.68c-0.25-0.12-0.51-0.24-0.76-0.37c-0.33-0.17-0.66-0.35-0.99-0.53
		c-0.39-0.22-0.78-0.44-1.16-0.68c-0.27-0.17-0.55-0.34-0.82-0.52c-0.27-0.18-0.54-0.36-0.8-0.55c-0.41-0.3-0.82-0.61-1.23-0.93
		c-0.24-0.19-0.47-0.39-0.7-0.58c-0.3-0.26-0.6-0.52-0.89-0.79c-3.2-2.97-5.72-6.67-7.29-10.7c-0.18-0.46-0.32-0.86-0.45-1.26
		l-0.06-0.17c-0.12-0.37-0.24-0.75-0.34-1.13l-0.07-0.24c-0.1-0.37-0.19-0.75-0.28-1.12l-0.06-0.26c-0.09-0.4-0.17-0.8-0.24-1.2
		l-0.04-0.2c-0.08-0.45-0.14-0.91-0.2-1.37c-0.12-1-0.19-1.99-0.2-2.97c-0.02-0.95,0.01-1.93,0.09-2.9l0.04-0.39
		c0.03-0.33,0.07-0.66,0.11-0.99c0.02-0.16,0.05-0.31,0.07-0.47l0.04-0.28c0.03-0.21,0.06-0.42,0.1-0.62
		c0.04-0.22,0.09-0.44,0.13-0.66l0.04-0.22c0.03-0.16,0.07-0.33,0.1-0.49c0.06-0.25,0.12-0.49,0.18-0.74l0.05-0.18
		c0.04-0.15,0.08-0.29,0.12-0.44c0.07-0.26,0.16-0.52,0.24-0.78l0.04-0.11c0.05-0.15,0.09-0.3,0.14-0.45
		c0.09-0.25,0.18-0.5,0.27-0.75l0.04-0.11c0.06-0.16,0.11-0.31,0.17-0.47c0.09-0.24,0.19-0.48,0.3-0.72l0.04-0.1
		c0.07-0.16,0.14-0.33,0.21-0.49c0.1-0.22,0.21-0.44,0.31-0.66l0.06-0.12c0.08-0.16,0.15-0.32,0.24-0.48
		c0.12-0.23,0.24-0.46,0.36-0.68l0.07-0.12c0.08-0.14,0.16-0.29,0.24-0.43c0.14-0.24,0.29-0.48,0.43-0.72l0.29-0.47
		c0.18-0.28,0.37-0.56,0.56-0.83l0.22-0.31c0.26-0.37,0.53-0.73,0.81-1.09c0.62-0.79,1.28-1.54,1.96-2.25
		c5.86-6.07,14.06-9.26,22.5-8.75c0.67,0.05,1.34,0.12,2.01,0.21l0.42,0.06c1.6,0.22,3.19,0.59,4.73,1.09l0.33,0.13
		c6.22,2.11,11.6,6.34,15.12,11.9c0.37,0.59,0.72,1.19,1.06,1.82l0.13,0.25c0.28,0.53,0.53,1.06,0.78,1.61l0.14,0.3
		c0.24,0.56,0.46,1.13,0.67,1.7c0.07,0.2,0.14,0.41,0.21,0.61c0.16,0.49,0.32,0.99,0.45,1.49c0.06,0.24,0.12,0.48,0.18,0.71
		c0.11,0.46,0.21,0.92,0.3,1.38c0.05,0.26,0.09,0.47,0.13,0.68c0.1,0.58,0.18,1.17,0.24,1.76l0.05,0.58c0.05,0.6,0.09,1.2,0.1,1.81
		c0.01,0.48,0.01,0.97,0,1.45l0.46,0.12l-0.46-0.01c-0.01,0.33-0.03,0.67-0.05,1l-0.02,0.42c-0.03,0.32-0.06,0.63-0.1,0.95
		l-0.05,0.45c-0.04,0.29-0.08,0.58-0.13,0.87l-0.08,0.53c-0.05,0.26-0.1,0.51-0.15,0.77l-0.13,0.63c-0.05,0.22-0.11,0.45-0.17,0.67
		l-0.06,0.22c-0.04,0.17-0.09,0.34-0.13,0.5c-0.05,0.17-0.1,0.33-0.15,0.5l-0.04,0.13c-0.09,0.28-0.16,0.52-0.24,0.76l-0.17,0.48
		c-0.11,0.3-0.21,0.59-0.33,0.89l-0.13,0.33c-0.14,0.34-0.28,0.68-0.43,1.01l-0.08,0.18c-0.18,0.38-0.36,0.75-0.55,1.12
		c-1.35,2.59-3.07,4.94-5.13,7.01c-0.89,0.89-1.85,1.73-2.95,2.57l-0.33,0.26c-1.28,0.98-2.67,1.84-4.11,2.57l-0.33,0.14
		c-5.87,2.9-12.64,3.71-19.04,2.29L262.55,339.48L262.55,339.48z"/>
	<path class="st0" d="M273.41,234.94c0.04-0.5,0.37-0.94,0.84-1.11l2.88-1.03c0.15-0.05,0.3-0.08,0.46-0.07l4.32,0.11
		c0.62,0.02,1.14,0.47,1.23,1.08l0.55,3.57l-0.26,0.13c-0.03,0.02-3.14,1.57-5.93-1.21l-1.74-0.24c-0.12,0.7-0.47,2.03-1.54,2.39
		c-0.08,0.03-0.16,0.04-0.24,0.04c-0.18,0-0.35-0.05-0.49-0.16c-0.2-0.16-0.31-0.4-0.29-0.65L273.41,234.94z"/>
	<polygon class="st5" points="354.12,251.28 356.91,251.28 352.23,260.59 349.25,260.64 	"/>
	<path class="st5" d="M344.54,245.26l13.79-0.25c2.07-0.04,3.79,1.62,3.83,3.69c0.04,2.07-1.62,3.79-3.69,3.83l-13.79,0.25
		c-2.07,0.04-3.79-1.62-3.83-3.69C340.8,247.01,342.46,245.3,344.54,245.26z"/>
	<g>
		<path class="st15" d="M308.05,305.66l8.25-0.08c0.38,0,0.68-0.31,0.68-0.69l-0.02-1.81c0-0.38-0.31-0.68-0.69-0.68l-8.25,0.08
			c-0.38,0-0.68,0.31-0.68,0.69l0.02,1.81C307.36,305.36,307.67,305.67,308.05,305.66z"/>
	</g>
	<path class="st5" d="M353.9,311.41c0.91,19.02,16.96,34.14,36.03,33.8c19.53-0.35,35.14-16.52,34.79-36.04
		c-0.35-19.53-16.52-35.14-36.05-34.79c-10.79,0.19-20.77,5.21-27.39,13.78l-2.38,3.53c-2.69,4.51-4.31,9.41-4.83,14.57
		L353.9,311.41z M360.23,311.16l0.06-0.3l0.15-4.7c0.46-3.83,1.69-7.47,3.62-10.84l0.19-0.21l2.66-3.86
		c5.39-6.59,13.35-10.43,21.88-10.58c16.06-0.29,29.35,12.55,29.64,28.61c0.29,16.06-12.55,29.35-28.6,29.64
		C374.16,339.19,360.96,326.77,360.23,311.16z"/>
	<path class="st4" d="M307.19,245.26c3.33-6.43,17.73-5.6,19.3-5.48l17.17,0.29l1.61,14.31l-18.07-0.09l-7.87-0.23
		c-1.3-0.04-2.39,0.99-2.45,2.28c-0.92,19.98,1.85,30.35,1.66,35l-10.81-0.54C307.65,284.01,304.01,251.4,307.19,245.26z"/>
	<path class="st16" d="M315.4,291.08c-0.01,0.2-0.01,2.32-0.01,2.49c-0.13,3.18-1.7,4.66-3.18,4.68c-1.21-0.02-2.62-1.14-2.62-4.19
		c0-0.42-0.18-2.78-0.19-3.2L315.4,291.08z"/>
	<path class="st11" d="M281.48,259.53l44.32,48.22L354.4,307l0.68,0.05l-0.16,4.77l-30.97,0.68l-19.41-20.52
		c-0.12-0.13-0.22-0.27-0.27-0.38l-24.09-26.2L281.48,259.53z"/>
	<g>
		<polygon class="st1" points="277.66,274.82 271.72,302.05 267.96,301.11 273.74,274.05 		"/>
	</g>
	<g>
		<polygon class="st1" points="267.14,300.77 272.48,302.11 271.11,308.37 265.77,307.06 		"/>
	</g>
	<polygon class="st11" points="341.84,275.58 339.02,281.11 298.82,279.43 293.67,273.79 	"/>
	<path class="st11" d="M352.34,264.66l26.73,42.02l-26.11,0.34l-1.59,4.81l28.98-0.37c0.9,3.65,4.22,6.22,8,6.15
		c4.47-0.08,8.03-3.78,7.95-8.24c-0.08-4.47-3.78-8.03-8.24-7.95c-1.68,0.03-3.29,0.59-4.67,1.62l-0.12-0.08l-28.42-43.52l0.18-0.37
		c0.12-0.26,0.11-0.55-0.04-0.79c-0.15-0.24-0.41-0.39-0.69-0.4l-4.62-0.11l-25.28,52.09l4.86,2.6L352.34,264.66z M384.62,303.84
		c0.04-0.05,0.09-0.1,0.15-0.14c0.27-0.16,0.61-0.07,0.77,0.19l0.53,0.88L384.62,303.84z M384.6,312.16l-1.5,0.9
		c-0.13,0.08-0.28,0.1-0.42,0.06c-0.15-0.04-0.27-0.13-0.35-0.26c-0.16-0.26-0.07-0.61,0.19-0.77l1.15-0.69l0.43-0.01
		C384.24,311.67,384.41,311.93,384.6,312.16z M390.71,312.92l0.98,1.63c0.16,0.26,0.07,0.61-0.19,0.77
		c-0.13,0.08-0.28,0.1-0.43,0.06c-0.15-0.04-0.27-0.13-0.35-0.26l-1-1.66C390.08,313.33,390.41,313.14,390.71,312.92z
		 M392.57,309.22c0-0.08-0.01-0.16-0.02-0.24l1.73-0.03c0.31-0.01,0.57,0.24,0.57,0.55c0.01,0.31-0.24,0.56-0.55,0.57l-1.82,0.03
		C392.54,309.8,392.57,309.51,392.57,309.22z M389.99,305.25l0.74-1.33c0.07-0.13,0.19-0.23,0.34-0.27
		c0.14-0.04,0.29-0.02,0.42,0.05c0.27,0.15,0.37,0.5,0.22,0.77l-0.77,1.39C390.65,305.61,390.33,305.41,389.99,305.25z
		 M393.76,306.92l-1.46,0.88c-0.13-0.35-0.3-0.68-0.51-1l1.4-0.84c0.26-0.16,0.61-0.07,0.77,0.19
		C394.11,306.41,394.02,306.76,393.76,306.92z M393.96,312.86c-0.15,0.28-0.49,0.38-0.77,0.22l-1.66-0.92
		c0.24-0.29,0.44-0.61,0.6-0.96l1.6,0.89C394.01,312.25,394.11,312.59,393.96,312.86z M387.58,303.37
		c-0.01-0.31,0.24-0.57,0.55-0.57c0.31-0.01,0.57,0.24,0.57,0.55l0.03,1.52c-0.4-0.07-0.78-0.07-1.12-0.03L387.58,303.37z
		 M388.7,315.65c0.01,0.31-0.24,0.57-0.55,0.57c-0.15,0-0.29-0.05-0.4-0.16c-0.11-0.1-0.17-0.24-0.17-0.39l-0.04-1.91
		c0.39,0.05,0.75,0.04,1.12,0L388.7,315.65z M384.78,315.33c-0.13-0.07-0.22-0.19-0.27-0.34c-0.04-0.14-0.02-0.3,0.05-0.42
		l0.89-1.62c0.31,0.22,0.64,0.39,0.99,0.53l-0.9,1.63C385.4,315.38,385.06,315.48,384.78,315.33z"/>
	<g>
		<path class="st5" d="M282.43,237.52l-4.97,24.86c-0.15,0.77,0.27,1.52,0.93,1.67l0.14,0.03c0.66,0.16,1.32-0.34,1.47-1.11
			l5.13-25.51L282.43,237.52z"/>
	</g>
	<g>
		<path class="st5" d="M275.2,237.79l11.09-0.2c0.56-0.01,1.02-0.48,1.01-1.04c-0.01-0.56-0.48-1.02-1.04-1.01l-11.09,0.2
			c-0.56,0.01-1.02,0.48-1.01,1.04C274.16,237.34,274.63,237.8,275.2,237.79z"/>
	</g>
	<g>
		<path class="st17" d="M263.82,309.88c0.04,2.4,2.03,4.32,4.43,4.27c2.4-0.04,4.32-2.02,4.27-4.43c-0.04-2.4-2.02-4.32-4.43-4.27
			C265.69,305.5,263.77,307.48,263.82,309.88z"/>
	</g>
	<g>
		<g>
			<path class="st5" d="M316.92,312.31c0.08,4.6,3.88,8.27,8.49,8.19c4.6-0.08,8.27-3.88,8.19-8.49c-0.08-4.6-3.88-8.27-8.49-8.19
				C320.51,303.91,316.84,307.7,316.92,312.31z"/>
		</g>
		<g>
			<g>
				<path class="st7" d="M323.99,306.3c0.01,0.71,0.6,1.28,1.32,1.27c0.71-0.01,1.28-0.6,1.27-1.32c-0.01-0.71-0.6-1.28-1.32-1.27
					C324.54,305,323.98,305.59,323.99,306.3z"/>
			</g>
			<g>
				<path class="st7" d="M329.7,308.13c-0.61,0.37-0.81,1.16-0.44,1.77c0.37,0.61,1.16,0.81,1.77,0.44
					c0.61-0.37,0.81-1.16,0.44-1.77C331.1,307.96,330.31,307.76,329.7,308.13z"/>
			</g>
			<g>
				<path class="st7" d="M330.97,313.99c-0.62-0.35-1.41-0.12-1.76,0.5s-0.12,1.41,0.5,1.76c0.62,0.35,1.41,0.12,1.76-0.5
					C331.82,315.12,331.59,314.33,330.97,313.99z"/>
			</g>
			<g>
				<path class="st7" d="M326.53,318.02c-0.01-0.71-0.6-1.28-1.32-1.27c-0.71,0.01-1.28,0.6-1.27,1.32c0.01,0.71,0.6,1.28,1.32,1.27
					C325.98,319.32,326.55,318.73,326.53,318.02z"/>
			</g>
			<g>
				<path class="st7" d="M320.82,316.19c0.61-0.37,0.81-1.16,0.44-1.77c-0.37-0.61-1.16-0.81-1.77-0.44
					c-0.61,0.37-0.81,1.16-0.44,1.77C319.42,316.36,320.21,316.56,320.82,316.19z"/>
			</g>
			<g>
				<path class="st7" d="M319.55,310.33c0.62,0.35,1.41,0.12,1.76-0.5c0.35-0.62,0.12-1.41-0.5-1.76c-0.62-0.35-1.41-0.12-1.76,0.5
					C318.7,309.2,318.93,309.99,319.55,310.33z"/>
			</g>
		</g>
	</g>
	<g>
		<path class="st7" d="M324.45,311.01c0.74-0.67,1.9-0.62,2.58,0.13l14.09,15.55c0.24,0.26,0.35,0.57,0.41,0.9
			c-1.22,0.3-2.3,0.78-3.25,1.4l-13.95-15.4C323.65,312.84,323.71,311.68,324.45,311.01z"/>
	</g>
	<g>
		<path class="st15" d="M337.18,330.89l7.39-3.67c0.34-0.17,0.48-0.58,0.31-0.92l-0.81-1.62c-0.17-0.34-0.58-0.48-0.92-0.31
			l-7.39,3.67c-0.34,0.17-0.48,0.58-0.31,0.92l0.81,1.62C336.42,330.92,336.84,331.06,337.18,330.89z"/>
	</g>
	<path class="st5" d="M330.47,326.27l8.05-8.08c0.33-0.33,0.79-0.52,1.24-0.52c0.31,0.01,0.57,0.11,0.75,0.31l4.22,4.56
		c0.18,0.2,0.25,0.46,0.21,0.73c-0.07,0.39-0.37,0.76-0.81,0.98l-10.35,5.26c-0.71,0.36-1.37,0.52-1.94,0.53
		c-0.92,0.02-1.62-0.34-1.98-0.85C329.39,328.54,329.31,327.44,330.47,326.27z"/>
	<path class="st11" d="M269.75,286.46l7.89-34.86c0.28-1.24,1.48-2.08,2.75-1.9l1.2,0.17c0.68,0.1,1.29,0.47,1.68,1.04
		c0.39,0.56,0.53,1.27,0.38,1.94l-7.5,35.03c-0.33,1.53-1.67,2.58-3.18,2.6c-0.24,0-0.48-0.02-0.72-0.07
		c-0.87-0.18-1.61-0.7-2.08-1.44C269.71,288.21,269.55,287.33,269.75,286.46z"/>
	<g>
		<path class="st16" d="M334.9,311.83l6.82-0.56c0.08,2.2,0.09,4.23,0.04,6.19c-0.08,2.89-1.7,4.74-3.16,4.8
			c-1.54,0.09-2.71-1.8-3.04-4.87C335.36,315.56,335.15,313.74,334.9,311.83z"/>
	</g>
	<g>
		<path class="st0" d="M306.86,215.51l7.06,3c-2.42,4.33-5.57,9.73-6.56,11.04c-0.97,1.17-11.41,4.34-20.19,4.49
			c-1.93,0.04-3.53-0.09-4.82-0.36l-0.15-0.76l20.03-8.53c0.86-0.37,1.53-1.06,1.88-1.93L306.86,215.51z"/>
	</g>
	<path class="st4" d="M328.83,273.1c0.64-3.03,1.6-6.18,2.84-9.37c3-7.72,7.58-15.65,14.41-24.94c3.62-4.93,8.54-4.71,11.81-2.3
		c3.18,2.34,4.97,6.8,2.45,10.22c-2.74,3.73-5.1,6.88-7.19,9.65c-3.65,4.86-6.29,8.37-8.15,11.29c-4.27,6.72-4.44,10.07-3.29,21.47
		c0.18,1.75,0.36,3.48,0.55,5.22c0.57,5.28,1.16,10.75,1.38,16.17l0.05,1.25l-10.66,0.88l-0.16-1.23
		c-0.92-7.07-1.92-12.82-2.72-17.43C328.55,284.66,327.57,279.04,328.83,273.1z"/>
	<path class="st18" d="M330.51,192.57l0.05-0.29l0.29,0.01c0.17,0.01,17.48,0.8,24.51,11.3c3.69,5.51,3.95,12.69,0.77,21.33
		l-0.12,0.33l-0.33-0.13C355.4,225,326.54,213.43,330.51,192.57z"/>
	<path class="st1" d="M307.15,214.74c5.97-15.19,6.03-15.26,6.07-15.31c1.43-1.74,3.87-2.05,6.23-0.78c2.37,1.28,4.3,4.11,3.39,7.03
		c-0.45,1.42-4.32,8.69-6.13,12.06c-0.52,0.97-1.7,1.37-2.71,0.92l-7.14-3.17L307.15,214.74z"/>
	<path class="st1" d="M313.08,200.28c0.39-1.58,0.84-3.12,1.99-4.56c0.58-0.73,1.22-1.45,1.87-2.15l0.1-0.07
		c7.23-3.4,11.95-2.96,18.7,1.75c6.07,4.23,12.13,15.14,17.99,25.69c2.36,4.25,4.8,8.64,7.19,12.49c1.68,2.71,2.02,5.98,0.93,8.99
		c-1.08,2.99-3.42,5.28-6.41,6.28c-2.22,0.74-9.22-0.33-10.23-0.53c-3.76-0.73-12.81-4.2-13.9-7.82
		c-4.39-14.55-11.71-13.37-16.26-22.63C311.4,210.25,312.06,204.36,313.08,200.28z"/>
	<g>
		<path class="st16" d="M318.06,223.81l2.63-6.59l8.43,3.66c-2.7,4.39-5.33,7.96-6.33,9.32c-2.21,2.99-20.16,6.36-31.39,7.89
			l0.11-3.51L318.06,223.81z"/>
	</g>
	<g>
		<path class="st18" d="M351.81,217.46c0.22,0,0.41-0.16,0.44-0.39c0.04-0.25-0.13-0.48-0.38-0.52
			c-21.39-3.24-26.84-8.44-27.65-12.23c-1.2-5.6,7.68-11.36,7.76-11.41c0.21-0.14,0.01-0.13-0.13-0.35
			c-0.14-0.21-0.71-0.23-0.93-0.09c-0.35,0.23-8.92,5.82-7.6,12.04c1.26,5.92,10.82,10.27,28.41,12.94
			C351.75,217.46,351.78,217.46,351.81,217.46z"/>
	</g>
	<path class="st16" d="M318.69,192.73c-2.35,2.04-4.02,5.38-2.8,6.77c1.22,1.4,4.86,0.33,7.21-1.71c2.35-2.04,3.26-4.83,2.04-6.23
		C323.92,190.16,321.03,190.68,318.69,192.73z"/>
	<path class="st1" d="M320.8,216.95c6.18-15.52,7.32-18.74,7.32-18.74c-0.01-0.03,0.19-0.19,0.19-0.19
		c5.82-5.36,14.07,1.38,10.45,7.75c0,0.89-5.29,10.51-7.42,14.29c-0.47,0.83-1.49,1.18-2.37,0.8l-8.3-3.61L320.8,216.95z"/>
	<g>
		<path class="st19" d="M329.62,221.41c0.74,0,1.45-0.39,1.83-1.08c0.07-0.13,7.44-13.26,7.45-14.41l-0.49,0
			c-0.01,0.73-4.41,8.89-7.38,14.17c-0.41,0.73-1.3,1.02-2.06,0.69l-8.08-3.51l0.04-0.09c5.55-13.94,7.04-17.96,7.28-18.63
			l-0.46-0.17c-0.24,0.66-1.73,4.68-7.28,18.61l-0.21,0.53l8.52,3.7C329.05,221.35,329.34,221.41,329.62,221.41z"/>
	</g>
	<path class="st8" d="M305.4,169.37c0.01-0.95,0.15-1.97,0.91-2.35c0.31-0.15,0.7-0.18,0.98-0.38c0.46-0.32,0.52-1,0.63-1.61
		c0.11-0.6,0.36-1.24,0.98-1.28c0.59-0.04,1.26,0.49,1.87,0.52c0.9,0.04,1.45-1.01,2.37-0.58c0.38,0.18,0.69,0.58,1.08,0.7
		c0.54,0.17,0.94-0.28,1.48-0.15c0.42,0.1,4.16,1.49,4.3,1.92c0.15,0.43-3.26-0.12-3.33,0.26c-0.14,0.72-0.43,1.42-1.06,1.7
		c-0.74,0.32-1.76-0.01-2.66-0.05c-1.43-0.06-2.67,0.76-2.82,2.16c-0.05,0.46,0.01,0.96-0.01,1.42c-0.03,0.47-0.16,0.93-0.53,1.13
		c-0.33,0.19-0.79,0.13-1.2,0.15c-0.42,0.02-0.85,0.17-0.92,0.57c-0.03,0.19,0.02,0.42-0.02,0.6c-0.11,0.52-0.73,0.41-1.15,0.05
		c-0.42-0.35-0.46-0.68-0.54-1.14C305.52,171.8,305.39,170.56,305.4,169.37z"/>
	<path class="st16" d="M311.34,174.85h7.44c0.32,0,0.59-0.26,0.59-0.59v-3.96c0-0.64-0.52-1.16-1.16-1.16h-6.87
		c-1.54,0-2.8,1.26-2.8,2.8v0.12C308.55,173.59,309.8,174.85,311.34,174.85z"/>
	<path class="st8" d="M323.25,182.69c-0.38,1.08-0.87,1.97-1.48,2.64c-1.67-1.72-1.54-3.73-1.54-3.73c0.47-0.34,0.79-1.15,0.79-2.09
		c0-1.25-0.59-2.26-1.3-2.25c-0.05,0-1.23-5.8-1.28-5.78l6.5,0.71C325.5,174.38,324.78,178.29,323.25,182.69z"/>
	<g>
		<path class="st16" d="M321.59,177.37c1.05-0.01,1.9,1.02,1.91,2.28c0.01,1.26-0.84,2.29-1.89,2.3c-1.05,0.01-1.9-1.02-1.91-2.28
			C319.69,178.4,320.54,177.38,321.59,177.37z"/>
	</g>
	<g>
		<path class="st16" d="M309.91,169.62c-1.67,1.37-2.75,3.46-2.74,5.81l0.03,5.98c0.02,4.08,2.62,7.13,6.59,7.11
			c3.96-0.02,7.85-3.09,7.83-7.18l-0.03-5.78L309.91,169.62z"/>
	</g>
	<g>
		<path class="st16" d="M323.46,196.35l-4.7,0.98c-0.74,0.16-1.38-0.38-1.54-1.14l-3.96-14.03c-0.17-0.76,0.3-1.52,1.04-1.68
			l5.39-1.19c0.74-0.16,1.48,0.33,1.65,1.09l3.17,14.29C324.67,195.43,324.2,196.19,323.46,196.35z"/>
	</g>
	<path class="st7" d="M313.69,183.14c-0.05,0.47-0.33,1.04-1.46,1.22c0,0-1.67,0.19-1.52-0.92L313.69,183.14z"/>
	<path class="st8" d="M313.5,175.04h1.63c0.24,0,0.43,0.2,0.43,0.43c0,0.24-0.2,0.43-0.43,0.43h-1.63c-0.24,0-0.43-0.2-0.43-0.43
		C313.07,175.24,313.26,175.04,313.5,175.04z"/>
	<path class="st8" d="M307.06,175.04h1.63c0.24,0,0.43,0.2,0.43,0.43c0,0.24-0.2,0.43-0.43,0.43h-1.63c-0.24,0-0.43-0.2-0.43-0.43
		C306.63,175.24,306.83,175.04,307.06,175.04z"/>
	<path class="st20" d="M308.18,177.05c0,0.43,0.22,0.77,0.5,0.77s0.5-0.35,0.5-0.77c0-0.43-0.22-0.77-0.5-0.77
		S308.18,176.62,308.18,177.05z"/>
	<path class="st20" d="M314.3,177.17c0,0.43,0.22,0.77,0.5,0.77s0.5-0.35,0.5-0.77s-0.22-0.77-0.5-0.77S314.3,176.74,314.3,177.17z"
		/>
	<path class="st0" d="M310.2,179.51l0.06-0.15c0.05,0.33,0.27,0.63,0.62,0.72l0.85,0.24c0.29,0.08,0.56-0.05,0.72-0.27l0.02,0.08
		c0.11,0.5-0.35,0.93-0.84,0.79l-0.85-0.24C310.26,180.56,310,180,310.2,179.51z"/>
	<path class="st16" d="M310.16,169.49c0,0,3.25-1.93,8.03-0.66l-1.82,1.55L310.16,169.49z"/>
	<path class="st8" d="M307.45,172.21c0,0,1.64-1.49,5.68-0.73c4.04,0.76,2.7,5.45,7.15,6.21l2.17-0.47l-0.76-8.09
		c0,0-8.15-6.09-14.01,0.82L307.45,172.21z"/>
	<path class="st8" d="M325,172.39c0,0-1.2-6.21-7.66-7c-6.46-0.79-9.65,4.56-9.65,4.56L325,172.39z"/>
	<g>
		<path class="st16" d="M291.11,238.2c-2.25,0.24-4.34-0.32-5.45-2.12l-1.84-0.73c-0.31,0.74-1.06,2.11-2.33,2.22
			c-0.29,0.02-0.58-0.1-0.77-0.33c-0.18-0.22-0.23-0.52-0.15-0.79l0.94-2.94c0.2-0.63,0.75-1.07,1.4-1.14l3.14-0.34
			c0.27-0.03,0.54,0.01,0.8,0.11l4.73,1.9c0.66,0.26,1.07,0.91,1.04,1.62l-0.04,0.95C292.55,237.43,291.92,238.11,291.11,238.2z"/>
	</g>
	<g>
		<path class="st5" d="M284.33,236.46c0.02,0.85,0.72,1.53,1.57,1.51c0.85-0.02,1.53-0.72,1.51-1.57c-0.02-0.85-0.72-1.53-1.57-1.51
			C284.99,234.91,284.31,235.61,284.33,236.46z"/>
	</g>
</g>
<g>
	<path class="st11" d="M495.28,311.27l10.06-3.52c0.41-0.14,0.89-0.12,1.26,0.07c0.25,0.13,0.43,0.33,0.5,0.56l1.69,5.55
		c0.07,0.24,0.03,0.49-0.13,0.7c-0.22,0.3-0.62,0.48-1.08,0.49c0,0-10.85,0.21-10.85,0.21c-1.93,0.03-2.99-0.94-3.16-1.86
		C493.44,312.74,493.82,311.78,495.28,311.27z"/>
	<path class="st16" d="M507.54,303.81c-0.02,0.18-0.27,2.89-0.29,3.04c-0.39,2.95-1.98,4.19-3.37,4.08
		c-1.12-0.13-2.34-1.29-2.08-4.13c0.04-0.39,0.11-3,0.14-3.39L507.54,303.81z"/>
	<path class="st5" d="M506.27,260.31c3.95-6.16,17.94-5.36,19.46-5.25l24.89,0.28l-8.09,13.71l-17.66-0.08l-7.67-0.22
		c-1.27-0.04-1.65,0.95-1.85,2.19c-2.5,15.68-2.13,25.18-2.3,30.55c-0.05,1.59-1.5,2.92-3.09,2.84l-8.07-0.38
		C502.55,297.43,502.51,266.19,506.27,260.31z"/>
	<path class="st11" d="M509.73,310.96l10.12-3.34c0.41-0.13,0.89-0.1,1.25,0.09c0.25,0.13,0.43,0.34,0.49,0.57l1.59,5.58
		c0.07,0.24,0.02,0.49-0.14,0.7c-0.22,0.3-0.63,0.47-1.09,0.47c0,0-10.85,0.02-10.86,0.02c-1.94,0-2.98-0.99-3.13-1.92
		C507.86,312.4,508.26,311.45,509.73,310.96z"/>
	<path class="st6" d="M515.77,262.74c3.11-5.78,16.57-5.03,18.03-4.93l26.76,0.26c1.5,6.59-3.52,12.86-10.27,12.84l-15.82-0.04
		l-7.35-0.21c-1.21-0.03-0.79,0.89-0.84,2.06c-0.65,13.55,0.39,22.19,0.87,27.41c0.2,2.16-1.57,3.99-3.74,3.9l-7.13-0.31
		C516.21,297.6,512.81,268.27,515.77,262.74z"/>
	<path class="st16" d="M521.96,303.95c-0.01,0.18-0.01,2.17-0.01,2.32c-0.12,2.97-1.59,4.35-2.97,4.37
		c-1.13-0.02-2.45-1.06-2.45-3.91c0-0.4-0.17-2.6-0.17-2.99L521.96,303.95z"/>
	<path class="st18" d="M549.07,205.87l0.15-0.23l0.25,0.11c0.15,0.07,11.99-0.85,17.15,18.48c1.6,5.98-1.1,12.36-6.92,18.7
		l-0.22,0.24l-0.24-0.23C559.03,242.74,538.22,222.47,549.07,205.87z"/>
	<path class="st1" d="M532.7,207.22c0.9-1.23,1.84-2.4,3.34-3.23c0.76-0.42,1.57-0.82,2.38-1.19l0.12-0.03
		c7.46-0.36,11.38,1.7,15.54,8.16c3.74,5.81,5.09,17.39,6.4,28.6c0.53,4.51,1.07,9.18,1.76,13.35c0.49,2.93-0.39,5.89-2.39,8.1
		c-1.99,2.2-4.83,3.34-7.77,3.14c-2.18-0.15-7.84-3.56-8.65-4.09c-2.99-1.97-9.57-8.19-9.23-11.7c1.39-14.13-3.48-15.71-4.12-25.34
		C529.58,215.24,530.37,210.39,532.7,207.22z"/>
	<g>
		<path class="st18" d="M560.05,235.84c0.19,0.07,0.41,0,0.52-0.18c0.12-0.2,0.06-0.46-0.15-0.58
			c-17.32-10.41-20.19-16.84-19.54-20.4c0.96-5.27,10.67-7.08,10.76-7.1c0.23-0.04,0.06-0.11,0.01-0.34
			c-0.04-0.23-0.54-0.45-0.77-0.41c-0.39,0.07-9.78,1.85-10.85,7.7c-1.02,5.56,5.69,12.72,19.94,21.29
			C560,235.82,560.02,235.83,560.05,235.84z"/>
	</g>
	<path class="st16" d="M540.23,202.69c-2.75,0.93-5.38,3.22-4.83,4.86c0.55,1.64,4.08,2.02,6.84,1.09c2.75-0.93,4.53-3.01,3.98-4.65
		C545.67,202.34,542.99,201.76,540.23,202.69z"/>
</g>
<g>
	<g>
		<path class="st2" d="M531.17,187.17c0,3.81,3.55,6.9,7.93,6.9s7.93-3.09,7.93-6.9c0-3.81-3.55-6.9-7.93-6.9
			S531.17,183.36,531.17,187.17z"/>
		<path class="st16" d="M529.15,192.42l1.22-2.84l0.92,4.32l-1.65-0.46C529.2,193.32,528.97,192.84,529.15,192.42z"/>
		<path class="st16" d="M530.86,186.29c0.42-1.11,0.95-2.36,1.82-3.1l3.45,2.01c3.68,2.36,4.1,4.54,4.1,4.54
			c0.08,0.04,0.14,0,0.22,0c0.97-0.01,1.75,0.93,1.76,2.1c0,0.86-0.42,1.6-1.03,1.93l0.47,0.87l1.54,2.63l-6.05,2.76
			c-0.3-0.3-0.71-0.48-1.16-0.42c-3.93,0.47-5.56-2.1-5.58-5.3l-0.03-5.5C530.36,187.91,530.56,187.07,530.86,186.29z"/>
		<path class="st16" d="M537.12,200.03l5.41-3.59l0.57,0.63c0-0.01,2.82,6.8,2.83,6.79l-1.51,0.73c-1.51,0.73-3.22,1.47-4.92,2.3
			l-1.64-5.8C537.74,200.67,537.46,200.3,537.12,200.03z"/>
		<path class="st7" d="M533.24,194.87c-0.03,0.44-0.2,0.97-0.91,1.13c0,0-1.04,0.18-0.95-0.86L533.24,194.87z"/>
		<path class="st8" d="M531.56,187.77h1.52c0.22,0,0.4,0.18,0.4,0.4c0,0.22-0.18,0.4-0.4,0.4h-1.52c-0.22,0-0.4-0.18-0.4-0.4
			C531.16,187.95,531.34,187.77,531.56,187.77z"/>
		<g>
			<path class="st8" d="M532.89,181.88c0.02-0.9,4.68-2.27,5.59-2.32c4.45-0.28,12.89,3.08,6.74,15.25c-0.51,1,0.23,3.2-0.59,3.82
				c-0.01,0.01-1.49-0.57-1.5-0.58c-2.24-1.63-1.99-4.27-1.99-4.27c0.63-0.32,1.07-1.07,1.07-1.95c-0.01-1.16-0.79-2.1-1.76-2.1
				c-0.08,0-0.15,0.04-0.22,0.06c-0.31-1.71-6.62-5.27-8.17-6.09c0,0,0.91-0.28-0.71-1.41
				C530.78,181.91,532.86,183.09,532.89,181.88z"/>
		</g>
		<path class="st9" d="M531.99,189.71c0,0.4,0.21,0.72,0.47,0.72s0.47-0.32,0.47-0.72s-0.21-0.72-0.47-0.72
			S531.99,189.31,531.99,189.71z"/>
	</g>
	<path class="st11" d="M550.61,190.14c0.22-3.97-1.54-7.98-5.07-10.45c-4.08-2.85-9.52-2.87-13.62-0.01
		c-1.34,0.94-2.38,2.05-3.17,3.28c-0.58,0.9-0.12,2.11,0.88,2.48l8.37,3.07c1.96,0.72,3.07,2.8,2.58,4.83l-0.43,1.77
		c-0.62,2.59,1,4.72,3.6,4.72c2.59,0,5.22-2.12,5.84-4.72l0.88-3.71c0.09-0.37,0.12-0.72,0.12-1.06
		C550.58,190.28,550.6,190.22,550.61,190.14z"/>
</g>
<g>
	<g>
		<path class="st21" d="M494.9,242.86l5.41,5.64l-6.67,14.07c-0.32,0.63-5.06-3.43-5.6-3.73l-0.11-0.06
			c-0.54-0.3-0.71-1.07-0.39-1.7L494.9,242.86z"/>
	</g>
	<g>
		<path class="st22" d="M497.19,240.85c-1.57,0.6-3.17,0.6-4.31-0.49l-1.46-0.17c-0.08,0.59-0.36,1.71-1.25,2.03
			c-0.21,0.07-0.44,0.04-0.61-0.09c-0.17-0.13-0.27-0.33-0.26-0.54l0.12-2.28c0.02-0.49,0.33-0.91,0.79-1.09l2.19-0.84
			c0.19-0.07,0.39-0.1,0.59-0.07l3.75,0.47c0.52,0.06,0.94,0.45,1.05,0.96l0.15,0.69C498.08,240.02,497.76,240.63,497.19,240.85z"/>
	</g>
	<path class="st12" d="M488.58,245.06h-6.18c-0.52,0-0.94-0.42-0.94-0.94v-10.66c0-0.52,0.42-0.94,0.94-0.94h6.18V245.06z"/>
	<path class="st23" d="M493.91,237.86c-0.57-3.57-4.47-6.14-8.83-6.14h-0.61c-0.7,0-1.27,0.57-1.27,1.27v11.63
		c0,0.7,0.57,1.27,1.27,1.27h0.93C490.5,245.9,494.6,242.18,493.91,237.86z"/>
	<g>
		<g>
			<path class="st24" d="M452.4,320.77c0,5.21,4.22,9.43,9.43,9.43c5.21,0,9.43-4.22,9.43-9.43c0-5.21-4.22-9.43-9.43-9.43
				C456.62,311.34,452.4,315.56,452.4,320.77z"/>
		</g>
		<g>
			<path class="st17" d="M458.7,320.88c0,1.87,1.52,3.39,3.39,3.39c1.87,0,3.39-1.52,3.39-3.39c0-1.87-1.52-3.39-3.39-3.39
				C460.22,317.49,458.7,319.01,458.7,320.88z"/>
		</g>
		<g>
			<path class="st17" d="M476.83,328.96l-1.15-0.67c-0.06,0.13-0.13,0.26-0.19,0.37c-0.75,1.38-1.7,2.63-2.82,3.72
				c-0.49,0.47-1.01,0.91-1.61,1.36l-0.2,0.15c-0.69,0.51-1.44,0.95-2.21,1.33l-0.19,0.08c-3.19,1.5-6.83,1.87-10.27,1.05
				l-0.13,0.24l0.06-0.26c-0.33-0.08-0.67-0.18-1.03-0.29l-0.21-0.07c-0.27-0.09-0.53-0.19-0.79-0.29l-0.26-0.1
				c-0.28-0.12-0.55-0.25-0.82-0.38c-0.14-0.07-0.27-0.14-0.4-0.21c-0.18-0.09-0.35-0.19-0.53-0.29c-0.21-0.12-0.41-0.25-0.62-0.38
				c-0.15-0.09-0.29-0.19-0.44-0.29c-0.14-0.1-0.29-0.2-0.43-0.3c-0.22-0.16-0.44-0.33-0.65-0.51c-0.12-0.1-0.23-0.2-0.34-0.3
				c-0.18-0.16-0.34-0.31-0.5-0.46c-1.7-1.63-3.02-3.64-3.82-5.83c-0.09-0.25-0.16-0.47-0.23-0.68l-0.28-0.02l0.25-0.08
				c-0.06-0.2-0.12-0.41-0.17-0.61l-0.03-0.13c-0.05-0.2-0.1-0.41-0.14-0.61l-0.03-0.14c-0.04-0.21-0.08-0.43-0.12-0.65l-0.02-0.1
				c-0.04-0.24-0.07-0.49-0.09-0.74c-0.05-0.54-0.08-1.07-0.08-1.6c0-0.51,0.03-1.04,0.08-1.56l0.03-0.21
				c0.02-0.18,0.04-0.36,0.07-0.53c0.01-0.08,0.03-0.16,0.04-0.25l0.03-0.16c0.02-0.11,0.04-0.22,0.06-0.33
				c0.02-0.11,0.05-0.23,0.08-0.34l0.03-0.12c0.02-0.09,0.04-0.18,0.06-0.27c0.04-0.14,0.07-0.28,0.11-0.42l0.02-0.07
				c0.02-0.08,0.04-0.16,0.07-0.24c0.04-0.13,0.08-0.27,0.13-0.4l0.03-0.08c0.03-0.08,0.05-0.16,0.08-0.25
				c0.05-0.13,0.09-0.25,0.14-0.38l0.04-0.1c0.03-0.08,0.06-0.15,0.09-0.23c0.05-0.13,0.11-0.26,0.17-0.38
				c0.06-0.13,0.1-0.22,0.14-0.31c0.05-0.11,0.11-0.23,0.17-0.34l0.04-0.08c0.04-0.09,0.09-0.17,0.13-0.26
				c0.06-0.11,0.13-0.23,0.19-0.34l0.18-0.31c0.07-0.12,0.15-0.24,0.23-0.36l0.17-0.27c0.01-0.02-2.33-1.38-2.33-1.38
				c-0.2-0.12-0.38-0.26-0.55-0.41l-0.12,0.18c-0.11,0.17-0.22,0.35-0.33,0.53c-0.04,0.07-0.08,0.14-0.12,0.22l-0.04,0.07
				c-0.1,0.17-0.19,0.34-0.29,0.52l-0.15,0.29c-0.09,0.18-0.18,0.36-0.27,0.54l-0.12,0.28c-0.09,0.19-0.17,0.38-0.25,0.58l-0.1,0.25
				c-0.08,0.21-0.16,0.41-0.24,0.63l-0.07,0.21c-0.08,0.22-0.15,0.44-0.22,0.67l-0.05,0.19c-0.07,0.23-0.13,0.47-0.19,0.7
				l-0.04,0.18c-0.06,0.24-0.11,0.47-0.16,0.71l-0.04,0.2c-0.04,0.23-0.08,0.47-0.12,0.7l-0.03,0.25c-0.03,0.22-0.06,0.43-0.08,0.65
				c-0.01,0.08-0.01,0.17-0.02,0.25l-0.02,0.26c-0.01,0.14-0.02,0.27-0.03,0.41c-0.01,0.27-0.02,0.54-0.02,0.82l0,0.11
				c0,0.32,0.01,0.63,0.02,0.94c0,0.08,0.01,0.16,0.02,0.23l0.02,0.24c0.01,0.15,0.02,0.3,0.04,0.45c0.01,0.12,0.03,0.23,0.04,0.35
				l0.03,0.23c0.01,0.11,0.03,0.23,0.04,0.34c0.02,0.14,0.04,0.27,0.07,0.41l0.03,0.19c0.02,0.1,0.04,0.21,0.06,0.31
				c0.03,0.13,0.06,0.27,0.09,0.4l0.04,0.17c0.02,0.11,0.05,0.22,0.08,0.33c0.03,0.13,0.07,0.25,0.1,0.38l0.02,0.07
				c0.05,0.18,0.09,0.32,0.13,0.46c0.03,0.11,0.07,0.22,0.1,0.33c0.07,0.23,0.13,0.4,0.19,0.57c0.03,0.08,0.06,0.15,0.08,0.22
				l0.03,0.08c0.07,0.19,0.15,0.39,0.23,0.58l0.09,0.22c0.09,0.22,0.19,0.43,0.29,0.65l0.04,0.08l0.26-0.07l-0.24,0.12
				c0.12,0.24,0.24,0.48,0.36,0.71c0.89,1.64,1.98,3.09,3.26,4.37c0.03,0.03,0.07,0.07,0.11,0.1l0.07,0.07
				c0.24,0.23,0.49,0.46,0.74,0.68l0.08,0.07c0.1,0.08,0.19,0.17,0.29,0.25c0.28,0.23,0.57,0.46,0.87,0.68
				c0.15,0.11,0.3,0.21,0.44,0.32c0.23,0.16,0.47,0.32,0.71,0.47c0.19,0.12,0.39,0.24,0.58,0.35c0.24,0.14,0.49,0.28,0.74,0.41
				c0.18,0.09,0.31,0.16,0.43,0.22c0.34,0.17,0.69,0.33,1.05,0.47c0.08,0.03,0.16,0.06,0.23,0.09l0.09,0.04
				c0.34,0.13,0.68,0.26,1.02,0.37l0.19,0.07c0.4,0.13,0.81,0.24,1.27,0.35l0.18,0.04c0.89,0.21,1.8,0.35,2.72,0.42l0.08,0.01
				c0.55,0.04,1.02,0.06,1.47,0.06c4.73,0,9.26-1.76,12.75-4.95c0.21-0.19,0.41-0.38,0.62-0.58c1.27-1.27,2.36-2.73,3.23-4.31
				l0.04-0.07c0.12-0.23,0.24-0.46,0.36-0.69l0.04-0.07C478.18,329.5,477.48,329.34,476.83,328.96z"/>
			<path class="st4" d="M477.04,306.08c-6.42-6.43-16.19-8.21-24.48-4.38c-0.06,0-0.11,0.05-0.11,0.05
				c-2.59,1.21-4.79,2.86-6.61,4.8c-1.18,1.27-1.01,3.23,0.21,4.36l0.05-0.07c0.13-0.2,0.26-0.39,0.4-0.58l0.12-0.17
				c0.18-0.24,0.36-0.47,0.56-0.72c1.02-1.25,2.19-2.36,3.49-3.32c0.25-0.18,0.5-0.36,0.76-0.53l0.07-0.04
				c0.24-0.16,0.48-0.31,0.72-0.45l0.08-0.04c0.24-0.14,0.49-0.28,0.74-0.41c0.3-0.16,0.55-0.28,0.8-0.4c2.59-1.19,5.25-1.78,8-1.78
				c0.3,0,0.59,0.01,0.88,0.03c4.71,0.22,9.14,2.18,12.48,5.51c1.02,1.02,1.92,2.16,2.71,3.42c0.15,0.24,0.25,0.42,0.36,0.6
				l0.09,0.16c0.1,0.17,0.19,0.35,0.28,0.52l0.06,0.12c0.14,0.28,0.28,0.57,0.41,0.86c0.07,0.15,0.13,0.3,0.19,0.44l0.12,0.31
				c0.07,0.17,0.13,0.35,0.21,0.55l0.08,0.22c0.08,0.23,0.15,0.45,0.23,0.72l0.02,0.07c0.17,0.56,0.31,1.14,0.42,1.72l0.02,0.09
				c0.05,0.25,0.09,0.5,0.13,0.76l0.02,0.17c0.03,0.22,0.06,0.45,0.08,0.68l0.02,0.21c0.02,0.22,0.04,0.45,0.05,0.67l0.01,0.2
				c0.01,0.28,0.02,0.57,0.02,0.86c0,0.31-0.01,0.63-0.02,0.94c0,0.08-0.01,0.15-0.02,0.23l-0.02,0.24
				c-0.01,0.15-0.02,0.3-0.04,0.45c-0.01,0.12-0.03,0.23-0.04,0.35l-0.03,0.24c-0.01,0.11-0.03,0.22-0.04,0.33
				c-0.02,0.14-0.05,0.28-0.07,0.42l-0.03,0.18c-0.02,0.1-0.04,0.21-0.06,0.31c-0.03,0.15-0.06,0.3-0.11,0.49l-0.02,0.08
				c-0.03,0.11-0.05,0.22-0.08,0.34c-0.03,0.14-0.07,0.27-0.12,0.45l-0.02,0.07c-0.03,0.13-0.07,0.25-0.11,0.38
				c-0.03,0.11-0.07,0.21-0.1,0.32l-0.03,0.09c-0.05,0.16-0.11,0.33-0.17,0.49l-0.12,0.32c-0.07,0.19-0.15,0.38-0.22,0.57l-0.1,0.23
				c-0.09,0.21-0.19,0.42-0.29,0.63l-0.04,0.07c1.79,0.01,3.5-1.13,3.95-3.02C484.49,319.41,482.61,311.64,477.04,306.08z"/>
			<path class="st17" d="M479.19,328.79l0.1-0.23c0.08-0.19,0.15-0.38,0.22-0.57l0.12-0.32c0.06-0.16,0.11-0.33,0.17-0.49l0.03-0.09
				c0.04-0.11,0.07-0.21,0.1-0.32c0.04-0.13,0.07-0.25,0.11-0.38l0.02-0.07c0.05-0.18,0.09-0.32,0.12-0.45
				c0.03-0.11,0.05-0.22,0.08-0.34l0.02-0.08c0.04-0.19,0.08-0.34,0.11-0.49c0.02-0.1,0.04-0.21,0.06-0.31l0.03-0.18
				c0.02-0.14,0.05-0.28,0.07-0.42c0.02-0.11,0.03-0.22,0.04-0.33l0.03-0.24c0.01-0.12,0.03-0.23,0.04-0.35
				c0.01-0.15,0.02-0.3,0.04-0.45l0.02-0.24c0.01-0.08,0.01-0.16,0.02-0.23c0.02-0.31,0.02-0.63,0.02-0.94
				c0-0.29-0.01-0.57-0.02-0.86l-0.01-0.2c-0.01-0.23-0.03-0.45-0.05-0.67l-0.02-0.21c-0.02-0.23-0.05-0.45-0.08-0.68l-0.02-0.17
				c-0.04-0.25-0.08-0.51-0.13-0.76l-0.02-0.09c-0.11-0.58-0.25-1.16-0.42-1.72l-0.02-0.07c-0.08-0.27-0.15-0.5-0.23-0.72
				l-0.08-0.22c-0.07-0.21-0.14-0.38-0.21-0.55l-0.12-0.31c-0.06-0.15-0.13-0.3-0.19-0.44c-0.13-0.29-0.27-0.58-0.41-0.86
				l-0.06-0.12c-0.09-0.18-0.19-0.35-0.28-0.52l-0.09-0.16c-0.1-0.18-0.21-0.36-0.32-0.54c-0.82-1.32-1.73-2.47-2.75-3.48
				c-3.34-3.34-7.77-5.3-12.48-5.51c-0.29-0.02-0.59-0.03-0.88-0.03c-2.75,0-5.41,0.58-7.91,1.73c-0.35,0.16-0.6,0.29-0.85,0.42
				c-0.3,0.16-0.55,0.3-0.79,0.44l-0.08,0.04c-0.25,0.15-0.49,0.3-0.72,0.45l-0.07,0.04c-0.26,0.17-0.51,0.35-0.76,0.53
				c-1.3,0.96-2.47,2.07-3.49,3.32c-0.2,0.25-0.38,0.49-0.56,0.72l-0.12,0.17c-0.14,0.19-0.27,0.38-0.4,0.58l-0.05,0.07
				c0.17,0.15,0.35,0.29,0.55,0.41l2.34,1.37c0.1-0.14,0.2-0.28,0.3-0.43l0.12-0.17c0.14-0.2,0.29-0.39,0.45-0.58
				c0.34-0.42,0.7-0.82,1.07-1.19c3.21-3.21,7.66-4.85,12.19-4.49c0.36,0.03,0.72,0.08,1.08,0.13l0.24,0.04
				c0.85,0.13,1.7,0.35,2.51,0.63l0.19,0.08c3.33,1.2,6.18,3.52,8.02,6.55c0.2,0.32,0.38,0.65,0.55,0.99l0.07,0.13
				c0.14,0.29,0.28,0.58,0.4,0.87l0.07,0.16c0.12,0.3,0.24,0.61,0.34,0.92c0.04,0.11,0.07,0.22,0.11,0.33
				c0.08,0.27,0.16,0.53,0.23,0.8c0.03,0.13,0.06,0.26,0.09,0.39c0.06,0.25,0.11,0.5,0.15,0.75c0.03,0.15,0.05,0.26,0.06,0.37
				c0.05,0.31,0.09,0.63,0.11,0.95l0.02,0.31c0.02,0.32,0.04,0.65,0.04,0.97c0,0.26,0,0.52-0.01,0.78l0.26,0.07l-0.26-0.01
				c-0.01,0.17-0.02,0.35-0.04,0.52l-0.02,0.24c-0.02,0.16-0.04,0.31-0.06,0.47l-0.04,0.29c-0.02,0.15-0.05,0.31-0.08,0.46
				l-0.05,0.29c-0.03,0.14-0.06,0.28-0.09,0.42l-0.08,0.33c-0.03,0.12-0.06,0.24-0.1,0.36l-0.03,0.12
				c-0.02,0.09-0.05,0.18-0.08,0.27c-0.03,0.09-0.05,0.17-0.08,0.25l-0.04,0.13c-0.04,0.12-0.08,0.24-0.12,0.36l-0.1,0.26
				c-0.06,0.16-0.12,0.32-0.19,0.47l-0.08,0.17c-0.08,0.18-0.16,0.36-0.24,0.54c-0.08,0.15-0.12,0.23-0.16,0.32l1.15,0.67
				c0.65,0.38,1.35,0.54,2.04,0.54l0.04-0.07C479.01,329.22,479.1,329.01,479.19,328.79z"/>
		</g>
	</g>
	<path class="st1" d="M466.45,316.75l-1.99-1.02c-1.23-0.63-1.71-2.15-1.09-3.37l10.79-21.04c0.63-1.23,2.14-1.71,3.37-1.08
		l1.99,1.02c1.23,0.63,1.71,2.15,1.09,3.37l-10.79,21.05C469.19,316.89,467.67,317.38,466.45,316.75z"/>
	<path class="st17" d="M540.63,321.4l0,0.11c0,0.32,0.01,0.63,0.02,0.94c0,0.08,0.01,0.16,0.02,0.23l0.02,0.24
		c0.01,0.15,0.02,0.3,0.04,0.45c0.01,0.12,0.03,0.23,0.04,0.35l0.03,0.23c0.01,0.11,0.03,0.22,0.04,0.34
		c0.02,0.14,0.04,0.27,0.07,0.41l0.03,0.19c0.02,0.1,0.04,0.21,0.06,0.31c0.03,0.13,0.06,0.27,0.09,0.4l0.04,0.17
		c0.02,0.11,0.05,0.22,0.08,0.33c0.03,0.13,0.07,0.25,0.1,0.38l0.02,0.07c0.05,0.18,0.09,0.32,0.13,0.46
		c0.03,0.11,0.07,0.22,0.1,0.33c0.07,0.23,0.13,0.4,0.19,0.57c0.03,0.08,0.06,0.15,0.08,0.22l0.03,0.08
		c0.07,0.19,0.15,0.39,0.23,0.58l0.09,0.22c0.09,0.22,0.19,0.44,0.29,0.65l0.04,0.08l0.26-0.07l-0.24,0.12
		c0.12,0.24,0.24,0.48,0.36,0.71c0.89,1.64,1.98,3.09,3.26,4.37c0.03,0.03,0.07,0.07,0.11,0.1l0.07,0.07
		c0.24,0.23,0.48,0.46,0.74,0.68l0.08,0.07c0.1,0.08,0.19,0.17,0.29,0.25c0.28,0.23,0.57,0.46,0.87,0.68
		c0.15,0.11,0.3,0.21,0.44,0.32c0.23,0.16,0.47,0.32,0.7,0.47c0.19,0.12,0.39,0.24,0.58,0.35c0.24,0.14,0.49,0.28,0.74,0.41
		c0.18,0.09,0.31,0.16,0.43,0.22c0.34,0.17,0.69,0.33,1.05,0.47c0.08,0.03,0.16,0.06,0.23,0.09l0.09,0.04
		c0.34,0.13,0.68,0.26,1.02,0.37l0.19,0.07c0.4,0.13,0.81,0.24,1.27,0.35l0.18,0.04c0.89,0.21,1.8,0.35,2.72,0.42l0.08,0.01
		c0.56,0.04,1.02,0.06,1.47,0.06c4.73,0,9.26-1.76,12.75-4.95c0.21-0.19,0.41-0.38,0.62-0.58c1.27-1.27,2.36-2.73,3.23-4.31
		l0.04-0.07c0.12-0.23,0.24-0.46,0.36-0.69l0.07-0.15c0.1-0.21,0.19-0.42,0.29-0.63l0.1-0.23c0.08-0.19,0.15-0.38,0.22-0.57
		l0.12-0.32c0.06-0.16,0.11-0.33,0.17-0.49l0.03-0.09c0.03-0.11,0.07-0.21,0.1-0.32c0.04-0.13,0.07-0.25,0.11-0.38l0.02-0.07
		c0.05-0.18,0.09-0.32,0.12-0.45c0.03-0.11,0.05-0.22,0.08-0.34l0.02-0.08c0.04-0.19,0.08-0.34,0.11-0.49
		c0.02-0.1,0.04-0.21,0.06-0.31l0.03-0.18c0.02-0.14,0.05-0.28,0.07-0.42c0.02-0.11,0.03-0.22,0.04-0.33l0.03-0.24
		c0.01-0.12,0.03-0.23,0.04-0.35c0.01-0.15,0.02-0.3,0.04-0.45l0.02-0.24c0.01-0.08,0.01-0.15,0.02-0.23
		c0.02-0.31,0.02-0.63,0.02-0.94c0-0.29-0.01-0.57-0.02-0.86l-0.01-0.2c-0.01-0.23-0.03-0.45-0.05-0.67l-0.02-0.21
		c-0.02-0.23-0.05-0.45-0.08-0.68l-0.02-0.17c-0.04-0.25-0.08-0.51-0.13-0.76l-0.02-0.09c-0.11-0.58-0.25-1.16-0.42-1.72l-0.02-0.07
		c-0.08-0.27-0.15-0.5-0.23-0.72l-0.08-0.22c-0.07-0.21-0.14-0.38-0.21-0.55l-0.12-0.31c-0.06-0.15-0.13-0.3-0.19-0.44
		c-0.13-0.29-0.27-0.58-0.41-0.86l-0.06-0.12c-0.09-0.18-0.19-0.35-0.28-0.52l-0.09-0.16c-0.1-0.18-0.21-0.36-0.32-0.54
		c-0.82-1.32-1.73-2.47-2.75-3.48c-3.34-3.34-7.77-5.3-12.48-5.51c-0.29-0.02-0.59-0.03-0.88-0.03c-2.75,0-5.41,0.58-7.91,1.73
		c-0.35,0.16-0.6,0.29-0.85,0.42c-0.3,0.16-0.55,0.3-0.79,0.44l-0.08,0.04c-0.25,0.15-0.49,0.3-0.72,0.45l-0.07,0.04
		c-0.26,0.17-0.51,0.35-0.76,0.53c-1.3,0.96-2.47,2.07-3.49,3.32c-0.2,0.25-0.38,0.49-0.56,0.72l-0.12,0.18
		c-0.14,0.19-0.27,0.38-0.4,0.58l-0.16,0.25c-0.11,0.17-0.22,0.35-0.33,0.52c-0.04,0.07-0.08,0.14-0.12,0.22l-0.04,0.07
		c-0.1,0.17-0.19,0.34-0.29,0.52l-0.15,0.29c-0.09,0.18-0.18,0.36-0.27,0.54l-0.12,0.28c-0.09,0.19-0.17,0.38-0.25,0.58l-0.1,0.25
		c-0.08,0.21-0.16,0.41-0.24,0.63l-0.07,0.21c-0.08,0.22-0.15,0.44-0.22,0.67l-0.05,0.19c-0.07,0.23-0.13,0.47-0.19,0.7l-0.04,0.18
		c-0.06,0.24-0.11,0.47-0.16,0.71l-0.04,0.2c-0.04,0.23-0.08,0.47-0.12,0.7l-0.03,0.26c-0.03,0.22-0.06,0.43-0.08,0.65
		c-0.01,0.08-0.01,0.17-0.02,0.25l-0.02,0.26c-0.01,0.14-0.02,0.27-0.03,0.41C540.64,320.85,540.63,321.13,540.63,321.4z
		 M544.46,326.17l0.25-0.08c-0.06-0.2-0.12-0.41-0.17-0.61l-0.03-0.13c-0.05-0.2-0.1-0.41-0.14-0.61l-0.03-0.14
		c-0.04-0.21-0.08-0.43-0.12-0.65l-0.02-0.1c-0.04-0.24-0.07-0.49-0.09-0.74c-0.05-0.54-0.08-1.07-0.08-1.6
		c0-0.51,0.03-1.04,0.08-1.56l0.03-0.21c0.02-0.18,0.04-0.36,0.07-0.53c0.01-0.08,0.03-0.16,0.04-0.25l0.03-0.16
		c0.02-0.11,0.04-0.22,0.06-0.33c0.02-0.11,0.05-0.23,0.07-0.34l0.03-0.12c0.02-0.09,0.04-0.18,0.06-0.27
		c0.04-0.14,0.07-0.28,0.11-0.42l0.02-0.07c0.02-0.08,0.04-0.16,0.07-0.24c0.04-0.13,0.08-0.27,0.13-0.4l0.03-0.08
		c0.03-0.08,0.05-0.16,0.08-0.25c0.05-0.13,0.09-0.25,0.14-0.38l0.04-0.1c0.03-0.08,0.06-0.15,0.09-0.23
		c0.05-0.13,0.11-0.26,0.17-0.38c0.06-0.13,0.1-0.22,0.14-0.31c0.05-0.11,0.11-0.23,0.17-0.34l0.04-0.08
		c0.04-0.09,0.09-0.17,0.13-0.26c0.06-0.11,0.13-0.23,0.19-0.34l0.18-0.31c0.07-0.12,0.15-0.24,0.23-0.36l0.17-0.27
		c0.1-0.15,0.2-0.3,0.31-0.44l0.12-0.17c0.14-0.2,0.29-0.39,0.45-0.58c0.34-0.42,0.7-0.82,1.07-1.19c3.21-3.21,7.66-4.85,12.19-4.49
		c0.36,0.03,0.72,0.08,1.08,0.13l0.24,0.04c0.85,0.13,1.7,0.35,2.51,0.63l0.19,0.08c3.33,1.2,6.18,3.52,8.02,6.55
		c0.2,0.32,0.38,0.65,0.55,0.99l0.07,0.13c0.14,0.29,0.28,0.58,0.4,0.87l0.07,0.16c0.12,0.3,0.24,0.61,0.34,0.92
		c0.04,0.11,0.07,0.22,0.11,0.33c0.08,0.27,0.16,0.53,0.23,0.8c0.03,0.13,0.06,0.26,0.09,0.39c0.06,0.25,0.11,0.5,0.15,0.75
		c0.03,0.15,0.05,0.26,0.06,0.37c0.05,0.31,0.09,0.63,0.11,0.95l0.02,0.31c0.02,0.32,0.04,0.65,0.04,0.97c0,0.26,0,0.52-0.01,0.78
		l0.26,0.07l-0.26-0.01c-0.01,0.17-0.02,0.35-0.04,0.52l-0.02,0.24c-0.02,0.16-0.04,0.31-0.06,0.47l-0.04,0.29
		c-0.02,0.15-0.05,0.31-0.08,0.46l-0.05,0.29c-0.03,0.14-0.06,0.28-0.09,0.42l-0.08,0.33c-0.03,0.12-0.06,0.24-0.1,0.36l-0.03,0.12
		c-0.02,0.09-0.05,0.18-0.08,0.27c-0.03,0.09-0.05,0.17-0.08,0.25l-0.04,0.13c-0.04,0.12-0.08,0.24-0.12,0.36l-0.1,0.26
		c-0.06,0.16-0.12,0.32-0.19,0.47l-0.08,0.17c-0.08,0.18-0.16,0.36-0.24,0.54c-0.14,0.29-0.25,0.49-0.35,0.69
		c-0.75,1.38-1.7,2.63-2.82,3.72c-0.49,0.47-1.01,0.91-1.61,1.36l-0.2,0.15c-0.69,0.51-1.44,0.95-2.21,1.33l-0.19,0.08
		c-3.19,1.5-6.83,1.87-10.27,1.05l-0.13,0.24l0.06-0.26c-0.33-0.08-0.67-0.18-1.03-0.29l-0.21-0.07c-0.27-0.09-0.53-0.19-0.79-0.29
		l-0.26-0.1c-0.28-0.12-0.55-0.25-0.82-0.38c-0.14-0.07-0.27-0.14-0.4-0.21c-0.18-0.09-0.35-0.19-0.53-0.29
		c-0.21-0.12-0.41-0.25-0.62-0.38c-0.15-0.09-0.29-0.19-0.44-0.29c-0.14-0.1-0.29-0.2-0.43-0.3c-0.22-0.16-0.44-0.33-0.65-0.51
		c-0.12-0.1-0.23-0.2-0.34-0.3c-0.18-0.16-0.34-0.31-0.5-0.46c-1.7-1.63-3.02-3.64-3.82-5.83c-0.09-0.25-0.16-0.47-0.23-0.68
		L544.46,326.17L544.46,326.17z"/>
	<g>
		<path class="st17" d="M551.6,321.51c0,4.38,3.55,7.93,7.93,7.93c4.38,0,7.93-3.55,7.93-7.93c0-4.38-3.55-7.93-7.93-7.93
			C555.15,313.58,551.6,317.13,551.6,321.51z"/>
	</g>
	<path class="st24" d="M559.99,324.79h-29.46c-1.72,0-3.12-1.4-3.12-3.12v-2.79c0-1.72,1.4-3.12,3.12-3.12h29.46
		c1.72,0,3.12,1.4,3.12,3.12v2.79C563.11,323.38,561.7,324.79,559.99,324.79z"/>
	<path class="st23" d="M558.58,279.39h-27.86c-1.26,0-2.29-1.03-2.29-2.29v-4.13c0-1.26,1.03-2.29,2.29-2.29h27.86
		c1.26,0,2.29,1.03,2.29,2.29v4.13C560.87,278.36,559.84,279.39,558.58,279.39z"/>
	<path class="st4" d="M485.62,238.87c0.63,5.21,4.43,9.5,9.56,10.72c1.68,0.39,3.26,0.43,4.78,0.19c1.12-0.17,1.77-1.38,1.35-2.44
		l-7.44-18.79c-0.57-1.44-2.39-1.97-3.6-1C486.98,230.16,485.07,234.36,485.62,238.87z"/>
	<g>
		<path class="st23" d="M492.34,243.51l7.53,1.72c0.5,0.11,1.01-0.2,1.12-0.7c0.11-0.5-0.2-1.01-0.7-1.12l-7.53-1.72
			c-0.5-0.11-1.01,0.2-1.12,0.7C491.53,242.9,491.84,243.4,492.34,243.51z"/>
	</g>
	<path class="st4" d="M545.52,275.86h-12.76c-2.03,0-3.68,1.65-3.68,3.68v31.48c0,2.22-1.8,4.02-4.02,4.02h-24.58
		c-4.51,0-8.49-2.92-9.85-7.22l-3.36-10.64c-1.43-4.53-1.37-9.4,0.15-13.89l6.65-19.56c0.98-2.89,0.66-6.06-0.88-8.69l-3.28-5.59
		c-0.53-0.91-1.86-0.89-2.36,0.05l-16.05,29.99c-1.93,3.61-1.78,7.99,0.42,11.45l13.36,21.2c3.45,5.47,9.46,8.79,15.93,8.79h65.45
		v-0.11l14.86,0c2.46,0,4.46-2,4.46-4.46C586,293.98,567.87,275.86,545.52,275.86z"/>
	<path class="st25" d="M462.22,321.92l-0.55-0.32c-0.34-0.19-0.45-0.63-0.26-0.97l3.99-6.88c0.2-0.34,0.63-0.45,0.97-0.26l0.55,0.32
		c0.34,0.19,0.45,0.63,0.26,0.97l-3.99,6.89C462.99,322,462.56,322.12,462.22,321.92z"/>
	<g>
		<path class="st16" d="M505.67,243.01c-1.57,0.6-3.17,0.6-4.31-0.49l-1.46-0.17c-0.08,0.59-0.36,1.71-1.25,2.03
			c-0.21,0.07-0.44,0.04-0.61-0.09c-0.17-0.13-0.27-0.33-0.26-0.54l0.12-2.28c0.02-0.49,0.33-0.91,0.79-1.09l2.19-0.84
			c0.19-0.07,0.39-0.1,0.59-0.07l3.75,0.47c0.52,0.06,0.94,0.45,1.05,0.96l0.15,0.69C506.56,242.19,506.24,242.8,505.67,243.01z"/>
	</g>
	<g>
		<path class="st23" d="M499.16,243.44c-0.21,0.94,0.39,1.88,1.33,2.08c0.94,0.21,1.88-0.39,2.08-1.33
			c0.21-0.94-0.39-1.88-1.33-2.08S499.37,242.5,499.16,243.44z"/>
	</g>
</g>
<g>
	<path class="st16" d="M533.71,228.85l-4.34,6.53l-24.84,4.58l0.67,2.99c11.14,0.76,25.16,1.41,27.6-0.67
		c1.32-1.13,4.77-4.08,8.48-7.83L533.71,228.85z"/>
</g>
<path class="st1" d="M533.88,228.6c9.75-14.05,11.64-17,11.64-17c0-0.03,0.23-0.14,0.23-0.14c7.04-4,13.72,4.63,8.63,10.15
	c-0.21,0.88-7.71,9.26-10.7,12.54c-0.66,0.72-1.76,0.83-2.55,0.25l-7.45-5.52L533.88,228.6z"/>
<g>
	<path class="st19" d="M541.65,235.09c0.74,0.17,1.54-0.06,2.08-0.65c0.1-0.11,10.49-11.5,10.76-12.65l-0.49-0.11
		c-0.18,0.73-6.46,7.85-10.65,12.43c-0.58,0.63-1.53,0.72-2.21,0.21l-7.25-5.37l0.06-0.08c8.76-12.62,11.18-16.29,11.57-16.9
		l-0.42-0.27c-0.39,0.61-2.81,4.27-11.57,16.88l-0.33,0.48l7.64,5.66C541.1,234.9,541.37,235.03,541.65,235.09z"/>
</g>
<g>
	<path class="st5" d="M1016.73,325.79h-46.45c-3.52,0-6.4-2.88-6.4-6.4c0-3.52,2.88-6.4,6.4-6.4h46.45c3.52,0,6.4,2.88,6.4,6.4
		C1023.14,322.91,1020.25,325.79,1016.73,325.79z"/>
	<path class="st5" d="M813.08,325.4h-46.45c-3.52,0-6.4-2.88-6.4-6.4c0-3.52,2.88-6.4,6.4-6.4h46.45c3.52,0,6.4,2.88,6.4,6.4
		C819.48,322.51,816.6,325.4,813.08,325.4z"/>
	<path class="st5" d="M1036.69,322.22H637.9c-3.74,0-6.81-3.06-6.81-6.81c0-3.74,3.06-6.81,6.81-6.81h398.79
		c3.74,0,6.81,3.06,6.81,6.81C1043.5,319.16,1040.43,322.22,1036.69,322.22z"/>
	<g>
		<path class="st26" d="M670.77,259.7c0.41-0.07,0.84-0.15,1.27-0.22c-0.4,0.07-0.79,0.14-1.19,0.22L670.77,259.7z"/>
		<path class="st4" d="M635.2,269.4c4.89-2.45,17.26-6.31,35.65-9.7c0.39-0.07,0.79-0.15,1.19-0.22c0.64-0.12,1.29-0.23,1.95-0.35
			c0.11,0,298.16-0.01,298.16-0.01c0-0.03,47.96-0.03,47.96-0.03c7.52,2.12,12.11,4.15,15.1,5.91c2.78,1.35,5.05,2.82,6.93,4.36
			c0.18,0.14,0.37,0.28,0.53,0.43c7.05,6.07,5,9.48,4.76,19.46c-0.05,2.02-0.21,5.85-0.21,5.85h0.91c2.3,0,4.17,1.3,4.19,2.91
			l0.1,13.18c0.02,2.25-2.59,4.08-5.81,4.08h-20.55c-0.16,0.02-0.32,0.03-0.49,0.03h-57.19c-0.45,0.21-0.96,0.34-1.49,0.34h-99.44
			h-46.05h-29.41h-27.12h-1.32h-10.25h-46.05h-24.96h-42.3v-0.26h-16.16v-18.96h0.62C624.17,294.34,618.61,277.11,635.2,269.4z"/>
		<path class="st4" d="M972.15,259.1c0,0.03-298.06,0.04-298.06,0.04c11.29-1.87,25.43-3.7,43.17-5.33c4.83-0.52,10-1.03,15.54-1.52
			c6.63-0.58,12.89-3.19,17.9-7.4c22.97-19.32,71.97-32.28,89.69-32.28c13.95,0,52.98-0.06,53.14-0.06
			c30.61,1.03,52.02,9.63,70.75,30.76c2.04,2.3,4.45,4.24,7.12,5.75c3.72,1.5,8.77,2.58,12.99,3.16c16.35,2.25,27.7,4.61,35.72,6.87
			L972.15,259.1z"/>
	</g>
	<polygon class="st4" points="761.35,251.98 756.77,259.19 869.54,259.03 874.06,251.98 	"/>
	<polygon class="st4" points="878.7,251.98 874.17,259.1 958.7,259.24 962.88,250.26 	"/>
	<polygon class="st27" points="869.54,259.03 756.8,259.2 756.78,307.25 869.54,307.25 	"/>
	<polygon class="st27" points="756.78,307.25 758.82,311.04 870.65,311.04 869.54,307.25 	"/>
	<path class="st27" d="M874.41,307.25c0.79,2.27,2.92,3.79,5.33,3.79h33.68c1.91,0,3.25-1.87,2.65-3.68L874.41,307.25z"/>
	<path class="st5" d="M888.4,215.9c-0.01,0-0.07,0-0.18,0c-2.06,0-6.36,0-10.64,0v24.12c22.18-0.64,44.41-3.5,66.27-8.18
		C928.56,221.37,910.9,216.65,888.4,215.9z"/>
	<path class="st5" d="M877.68,239.93v12.06h67.35v-19.5c-0.36-0.25-0.72-0.49-1.08-0.73C922.09,236.43,899.86,239.29,877.68,239.93z
		"/>
	<path class="st5" d="M961.39,247.26c-4.11-4.6-8.35-8.62-12.78-12.11v16.83h10.52c2.6,0,3.97-2.81,2.3-4.67
		C961.42,247.3,961.4,247.28,961.39,247.26z"/>
	<path class="st5" d="M761.18,251.98h25.36l-0.58-16.05C769.78,244.11,761.95,251.51,761.18,251.98z"/>
	<path class="st24" d="M874.11,240.05V215.8c0,0-14.32-0.55-18.7,0c-24.85,3.12-44.3,9.07-58.92,15.26
		C821.79,237.67,847.89,240.45,874.11,240.05z"/>
	<path class="st24" d="M796.49,231.06c-3.83,1.62-7.36,3.26-10.54,4.87l0.58,16.05h87.57v-11.94
		C847.89,240.45,821.79,237.67,796.49,231.06z"/>
	<path class="st5" d="M756.73,248.71c24.01-18.23,56.32-31.05,92.7-36.16l-12.72,0.07c-1.76,0.01-3.52,0.17-5.27,0.36
		c-45.98,5.02-96.54,39-96.54,39h11.96C750.42,251.98,753.9,250.86,756.73,248.71z"/>
	<g>
		<path class="st1" d="M749.52,279.94c0,0.76-0.62,1.38-1.38,1.38h-6.75c-0.76,0-1.38-0.62-1.38-1.38c0-0.76,0.62-1.38,1.38-1.38
			h6.75C748.9,278.56,749.52,279.18,749.52,279.94L749.52,279.94z"/>
	</g>
	<g>
		<path class="st27" d="M635.35,291.76c4.67,0,10.51-3.75,13.05-8.37c2.54-4.62,1-8.37-3.44-8.37h-6.92h-10.01h-0.48
			c-0.09,0.12-0.19,0.24-0.28,0.36c-3.66,5.06-4.4,10.56-3.9,16.39h4.69H635.35z"/>
	</g>
	<g>
		<path class="st4" d="M626.58,276.43l17.86-0.13c0,0,8.6,5.15-7.28,13.91c0,0-7.71-0.84-13.44-6.37
			C623.72,283.84,624.38,279.09,626.58,276.43z"/>
	</g>
	<g>
		<path class="st1" d="M636.65,277.22c-2.97-0.65-6.15,1.75-7.11,5.35c-0.96,3.6,0.66,7.05,3.63,7.69c2.97,0.65,6.15-1.75,7.11-5.35
			C641.24,281.31,639.61,277.86,636.65,277.22z M638.87,284.72c-0.75,2.83-3.25,4.71-5.58,4.2c-2.33-0.51-3.6-3.21-2.85-6.04
			c0.75-2.82,3.25-4.7,5.58-4.19C638.35,279.19,639.63,281.89,638.87,284.72z"/>
	</g>
	<g>
		<path class="st1" d="M626.01,277.23l-0.44,0.78c0.98,0.69,1.44,2.12,1.04,3.6c-0.42,1.59-1.69,2.72-3,2.82l-0.11,0.86
			c1.69-0.04,3.34-1.48,3.88-3.52C627.89,279.88,627.28,278.07,626.01,277.23z"/>
	</g>
	<path class="st27" d="M736.64,315.63c0.38-2.07,0.59-4.19,0.59-6.37c0-19.19-15.56-34.75-34.75-34.75
		c-19.19,0-34.75,15.56-34.75,34.75c0,2.18,0.21,4.3,0.59,6.37H736.64z"/>
	<g>
		
			<ellipse transform="matrix(0.1222 -0.9925 0.9925 0.1222 307.8856 969.4969)" class="st5" cx="702.03" cy="310.69" rx="30.79" ry="30.79"/>
		
			<ellipse transform="matrix(0.2298 -0.9732 0.9732 0.2298 238.3524 922.5558)" class="st24" cx="702.03" cy="310.69" rx="23.76" ry="23.76"/>
		<g>
			<g>
				<g>
					<path class="st5" d="M701.55,306.08c0,0.38,0.3,0.69,0.67,0.69c0.38,0,0.68-0.31,0.68-0.69c0-0.38-0.3-0.68-0.68-0.68
						C701.85,305.4,701.55,305.71,701.55,306.08z"/>
				</g>
				<g>
					<path class="st5" d="M703.93,306.49c-0.18,0.33-0.08,0.75,0.25,0.94c0.33,0.19,0.74,0.08,0.93-0.25
						c0.18-0.33,0.08-0.76-0.25-0.94C704.54,306.05,704.12,306.16,703.93,306.49z"/>
				</g>
				<g>
					<path class="st5" d="M705.81,308.05c-0.32,0.19-0.43,0.61-0.25,0.94c0.19,0.33,0.6,0.44,0.93,0.25
						c0.32-0.19,0.43-0.61,0.24-0.94C706.54,307.97,706.13,307.86,705.81,308.05z"/>
				</g>
				<g>
					<path class="st5" d="M706.66,310.36c-0.37,0-0.67,0.31-0.67,0.69c0,0.38,0.3,0.69,0.67,0.69c0.38,0,0.68-0.31,0.68-0.69
						C707.34,310.67,707.03,310.36,706.66,310.36z"/>
				</g>
				<g>
					<path class="st5" d="M706.27,312.79c-0.32-0.19-0.75-0.08-0.93,0.25c-0.18,0.33-0.08,0.75,0.25,0.94
						c0.32,0.19,0.74,0.08,0.93-0.25C706.7,313.4,706.59,312.98,706.27,312.79z"/>
				</g>
				<g>
					<path class="st5" d="M704.73,314.69c-0.18-0.33-0.59-0.44-0.92-0.25c-0.32,0.19-0.44,0.61-0.25,0.94
						c0.18,0.33,0.59,0.44,0.92,0.25C704.81,315.45,704.92,315.03,704.73,314.69z"/>
				</g>
				<g>
					<path class="st5" d="M702.47,315.57c0-0.38-0.3-0.69-0.67-0.69c-0.38,0-0.68,0.31-0.68,0.69c0,0.38,0.3,0.69,0.68,0.69
						C702.17,316.26,702.47,315.95,702.47,315.57z"/>
				</g>
				<g>
					<path class="st5" d="M700.08,315.17c0.19-0.33,0.08-0.75-0.25-0.94c-0.33-0.19-0.74-0.08-0.93,0.25
						c-0.18,0.33-0.07,0.75,0.25,0.94C699.48,315.61,699.89,315.5,700.08,315.17z"/>
				</g>
				<g>
					<path class="st5" d="M698.21,313.6c0.32-0.19,0.43-0.61,0.25-0.94c-0.2-0.33-0.61-0.44-0.93-0.25
						c-0.33,0.19-0.43,0.61-0.24,0.94C697.47,313.68,697.89,313.79,698.21,313.6z"/>
				</g>
				<g>
					<path class="st5" d="M697.36,311.29c0.37,0,0.68-0.31,0.68-0.69c0-0.38-0.31-0.69-0.68-0.69c-0.37,0-0.68,0.31-0.68,0.69
						C696.68,310.99,696.98,311.29,697.36,311.29z"/>
				</g>
				<g>
					<path class="st5" d="M697.75,308.87c0.32,0.19,0.73,0.07,0.92-0.26c0.18-0.33,0.07-0.75-0.25-0.94
						c-0.32-0.19-0.74-0.08-0.93,0.25C697.32,308.25,697.43,308.67,697.75,308.87z"/>
				</g>
				<g>
					<path class="st5" d="M699.28,306.96c0.19,0.33,0.61,0.44,0.93,0.25c0.32-0.19,0.43-0.61,0.24-0.94
						c-0.18-0.33-0.59-0.44-0.92-0.25C699.21,306.21,699.1,306.63,699.28,306.96z"/>
				</g>
			</g>
			<g>
				<g>
					<path class="st5" d="M704.06,301.7c0,1-0.83,1.81-1.85,1.81c-1.02,0-1.86-0.81-1.86-1.81v-8.37c0-1,0.83-1.81,1.86-1.81
						c1.02,0,1.85,0.81,1.85,1.81V301.7z"/>
				</g>
				<g>
					<path class="st5" d="M699.19,301.91c0.51,0.87,0.21,1.97-0.68,2.48c-0.89,0.5-2.02,0.2-2.53-0.66l-4.29-7.25
						c-0.51-0.87-0.21-1.98,0.68-2.48c0.89-0.5,2.02-0.2,2.53,0.66L699.19,301.91z"/>
				</g>
				<g>
					<path class="st5" d="M695.07,304.47c0.88,0.5,1.19,1.61,0.68,2.47c-0.51,0.87-1.65,1.16-2.53,0.66l-7.42-4.18
						c-0.89-0.5-1.19-1.61-0.68-2.48c0.51-0.86,1.65-1.16,2.53-0.66L695.07,304.47z"/>
				</g>
				<g>
					<path class="st5" d="M692.82,308.7c1.02,0,1.85,0.81,1.85,1.81c0,1-0.83,1.81-1.85,1.81h-8.57c-1.03,0-1.86-0.81-1.86-1.81
						c0-1,0.83-1.81,1.86-1.81H692.82z"/>
				</g>
				<g>
					<path class="st5" d="M693.04,313.47c0.89-0.5,2.02-0.2,2.53,0.66c0.51,0.87,0.21,1.97-0.68,2.47l-7.42,4.18
						c-0.88,0.5-2.02,0.2-2.53-0.66c-0.52-0.87-0.21-1.97,0.67-2.47L693.04,313.47z"/>
				</g>
				<g>
					<path class="st5" d="M695.66,317.49c0.51-0.86,1.64-1.16,2.53-0.66c0.89,0.5,1.19,1.61,0.68,2.48l-4.28,7.25
						c-0.52,0.87-1.65,1.16-2.54,0.66c-0.88-0.5-1.19-1.61-0.68-2.47L695.66,317.49z"/>
				</g>
				<g>
					<path class="st5" d="M699.99,319.69c0-1,0.83-1.81,1.86-1.81c1.02,0,1.85,0.81,1.85,1.81v8.37c0,1-0.83,1.81-1.85,1.81
						c-1.03,0-1.86-0.81-1.86-1.81V319.69z"/>
				</g>
				<g>
					<path class="st5" d="M704.87,319.48c-0.51-0.87-0.21-1.97,0.68-2.47c0.89-0.5,2.02-0.2,2.53,0.66l4.28,7.25
						c0.51,0.87,0.21,1.97-0.68,2.47c-0.88,0.5-2.02,0.2-2.53-0.66L704.87,319.48z"/>
				</g>
				<g>
					<path class="st5" d="M708.98,316.91c-0.89-0.5-1.19-1.61-0.68-2.47c0.51-0.86,1.65-1.16,2.53-0.66l7.42,4.19
						c0.89,0.5,1.19,1.6,0.68,2.47c-0.51,0.86-1.64,1.16-2.53,0.66L708.98,316.91z"/>
				</g>
				<g>
					<path class="st5" d="M711.24,312.68c-1.02,0-1.86-0.81-1.86-1.81c0-1,0.83-1.81,1.86-1.81h8.57c1.02,0,1.85,0.81,1.85,1.81
						c0,1-0.83,1.81-1.85,1.81H711.24z"/>
				</g>
				<g>
					<path class="st5" d="M711.02,307.92c-0.89,0.5-2.02,0.2-2.53-0.66c-0.51-0.87-0.21-1.98,0.68-2.47l7.42-4.19
						c0.89-0.5,2.02-0.2,2.53,0.66c0.51,0.87,0.21,1.98-0.68,2.48L711.02,307.92z"/>
				</g>
				<g>
					<path class="st5" d="M708.4,303.9c-0.51,0.87-1.65,1.16-2.53,0.66c-0.89-0.5-1.19-1.61-0.68-2.47l4.29-7.25
						c0.51-0.87,1.64-1.16,2.53-0.66c0.89,0.5,1.19,1.61,0.68,2.47L708.4,303.9z"/>
				</g>
			</g>
		</g>
	</g>
	<g>
		<path class="st27" d="M958.77,259.13l-84.6-0.03l0.21,48.14l41.68,0.12c2.15-16.8,12.67-36.49,37.32-37.3
			c2.92-0.1,5.25-2.46,5.27-5.38L958.77,259.13z"/>
	</g>
	<path class="st27" d="M992.52,315.65c0.38-2.07,0.59-4.19,0.59-6.37c0-19.19-15.56-34.75-34.75-34.75
		c-19.19,0-34.75,15.56-34.75,34.75c0,2.18,0.21,4.3,0.59,6.37H992.52z"/>
	<g>
		<g>
			<path class="st4" d="M805.47,251.44c0,2.99-2.45,5.44-5.44,5.44h-15.64c-2.99,0-5.43-2.44-5.43-5.44v-4.53
				c0-2.99,2.44-5.44,5.43-5.44h15.64c2.99,0,5.44,2.44,5.44,5.44V251.44z"/>
		</g>
		<g>
			<path class="st1" d="M804.04,246.9h-2.72h-2.15h-0.57h-2.15h-2.72c-1.11,0-2.01,0.9-2.01,2.01c0,1.11,0.9,2.01,2.01,2.01h2.72
				h2.15h0.57h2.15h2.72c0.06-0.01,0.06-4.01,0.06-4.01C804.08,246.91,804.05,246.9,804.04,246.9z"/>
		</g>
	</g>
	<g>
		<path class="st27" d="M1003.31,284.59c-4.62,0-8.38-3.76-8.38-8.38c0-4.62,3.76-8.38,8.38-8.38c4.62,0,8.38,3.76,8.38,8.38
			C1011.69,280.83,1007.93,284.59,1003.31,284.59z M1003.31,269.22c-3.85,0-6.99,3.13-6.99,6.99c0,3.85,3.14,6.99,6.99,6.99
			c3.85,0,6.99-3.13,6.99-6.99C1010.29,272.36,1007.16,269.22,1003.31,269.22z"/>
	</g>
	<path class="st4" d="M844.99,262.67c-0.04,0.16-0.1,0.31-0.1,0.48c0,1.19,0.98,2.17,2.17,2.17h13.38c1.19,0,2.17-0.98,2.17-2.17
		c0-0.17-0.06-0.32-0.1-0.48H844.99z"/>
	<path class="st4" d="M935.37,262.67c-0.01,0.1-0.06,0.2-0.06,0.3c0,1.19,0.98,2.17,2.17,2.17h13.38c1.19,0,2.17-0.98,2.17-2.17
		c0-0.11-0.05-0.2-0.06-0.3H935.37z"/>
	<g>
		<path class="st27" d="M630.15,296.64h-6.3v14.51h6.3c4.01,0,7.25-3.25,7.25-7.25C637.41,299.89,634.16,296.64,630.15,296.64z"/>
	</g>
	<g>
		<path class="st4" d="M640.25,293.58h-18.14c-0.69,0-1.26,0.86-1.26,1.91c0,1.05,0.56,1.91,1.26,1.91h18.14V293.58z"/>
	</g>
	<g>
		<path class="st5" d="M667.92,313.39h-41.73c-3.26,0-5.91,2.11-5.91,4.71c0,2.6,2.65,4.71,5.91,4.71h37.44
			c3.08,0,5.41-2.76,4.9-5.8L667.92,313.39z"/>
	</g>
	<g>
		<path class="st5" d="M626.02,302.44h-2.2v6.13h2.2c1.92,0,3.48-1.37,3.48-3.06C629.5,303.81,627.94,302.44,626.02,302.44z"/>
	</g>
	<path class="st1" d="M644,278.26c1.03,2.23,1.74,6.11-3.07,9.5c0,0-0.87,1.44,0.99,0.87c0,0,7.64-4.01,6.15-10.77
		c0,0-0.16-2.02-5.1-1.46C642.87,276.4,643.48,277.12,644,278.26z"/>
	<path class="st1" d="M1044.05,290.87v-11.03c0-1.87,1.53-3.4,3.4-3.4c1.87,0,3.4,1.53,3.4,3.4v11.03c0,1.87-1.53,3.4-3.4,3.4
		C1045.59,294.27,1044.05,292.74,1044.05,290.87z"/>
	<g>
		
			<ellipse transform="matrix(0.1891 -0.982 0.982 0.1891 473.0925 1191.2523)" class="st5" cx="957.82" cy="309.18" rx="30.79" ry="30.79"/>
		
			<ellipse transform="matrix(0.1891 -0.982 0.982 0.1891 473.0923 1191.2522)" class="st24" cx="957.82" cy="309.18" rx="23.76" ry="23.76"/>
		<g>
			<g>
				<g>
					<path class="st5" d="M957.35,304.57c0,0.38,0.3,0.69,0.67,0.69c0.38,0,0.68-0.31,0.68-0.69c0-0.38-0.3-0.68-0.68-0.68
						C957.65,303.89,957.35,304.19,957.35,304.57z"/>
				</g>
				<g>
					<path class="st5" d="M959.73,304.97c-0.18,0.33-0.08,0.75,0.25,0.94c0.33,0.19,0.74,0.08,0.93-0.25
						c0.18-0.33,0.08-0.76-0.25-0.94C960.34,304.53,959.92,304.64,959.73,304.97z"/>
				</g>
				<g>
					<path class="st5" d="M961.6,306.54c-0.32,0.19-0.43,0.61-0.25,0.94c0.19,0.33,0.6,0.44,0.93,0.25
						c0.32-0.19,0.43-0.61,0.24-0.94C962.34,306.46,961.93,306.35,961.6,306.54z"/>
				</g>
				<g>
					<path class="st5" d="M962.46,308.84c-0.37,0-0.68,0.31-0.68,0.69c0,0.38,0.3,0.69,0.68,0.69c0.38,0,0.68-0.31,0.68-0.69
						C963.14,309.16,962.83,308.84,962.46,308.84z"/>
				</g>
				<g>
					<path class="st5" d="M962.07,311.28c-0.32-0.19-0.75-0.08-0.93,0.25c-0.18,0.33-0.08,0.75,0.25,0.94
						c0.32,0.19,0.74,0.08,0.93-0.25C962.5,311.89,962.39,311.47,962.07,311.28z"/>
				</g>
				<g>
					<path class="st5" d="M960.53,313.18c-0.18-0.33-0.59-0.44-0.92-0.25c-0.32,0.19-0.44,0.61-0.25,0.94
						c0.18,0.33,0.59,0.44,0.92,0.25C960.61,313.93,960.72,313.51,960.53,313.18z"/>
				</g>
				<g>
					<path class="st5" d="M958.26,314.05c0-0.38-0.3-0.69-0.67-0.69c-0.38,0-0.68,0.31-0.68,0.69c0,0.38,0.3,0.69,0.68,0.69
						C957.96,314.74,958.26,314.43,958.26,314.05z"/>
				</g>
				<g>
					<path class="st5" d="M955.88,313.65c0.19-0.33,0.08-0.75-0.25-0.94c-0.33-0.19-0.74-0.08-0.93,0.25
						c-0.18,0.33-0.07,0.75,0.25,0.94C955.27,314.1,955.69,313.98,955.88,313.65z"/>
				</g>
				<g>
					<path class="st5" d="M954.01,312.09c0.32-0.19,0.43-0.61,0.25-0.94c-0.2-0.33-0.61-0.44-0.93-0.25
						c-0.33,0.19-0.43,0.61-0.24,0.94C953.27,312.17,953.68,312.28,954.01,312.09z"/>
				</g>
				<g>
					<path class="st5" d="M953.15,309.78c0.37,0,0.68-0.31,0.68-0.69c0-0.38-0.31-0.69-0.68-0.69c-0.37,0-0.68,0.31-0.68,0.69
						C952.48,309.47,952.78,309.78,953.15,309.78z"/>
				</g>
				<g>
					<path class="st5" d="M953.55,307.35c0.32,0.19,0.73,0.07,0.92-0.26c0.18-0.33,0.07-0.75-0.25-0.94
						c-0.32-0.19-0.74-0.08-0.93,0.25C953.11,306.74,953.22,307.16,953.55,307.35z"/>
				</g>
				<g>
					<path class="st5" d="M955.08,305.44c0.19,0.33,0.61,0.44,0.93,0.25c0.32-0.19,0.43-0.61,0.24-0.94
						c-0.18-0.33-0.59-0.44-0.92-0.25C955,304.69,954.89,305.11,955.08,305.44z"/>
				</g>
			</g>
			<g>
				<g>
					<path class="st5" d="M959.86,300.18c0,1-0.83,1.81-1.85,1.81c-1.02,0-1.86-0.81-1.86-1.81v-8.37c0-1,0.83-1.81,1.86-1.81
						c1.02,0,1.85,0.81,1.85,1.81V300.18z"/>
				</g>
				<g>
					<path class="st5" d="M954.99,300.39c0.51,0.87,0.21,1.97-0.68,2.48c-0.89,0.5-2.02,0.2-2.53-0.66l-4.29-7.25
						c-0.51-0.87-0.21-1.98,0.68-2.48c0.89-0.5,2.02-0.2,2.53,0.66L954.99,300.39z"/>
				</g>
				<g>
					<path class="st5" d="M950.87,302.96c0.88,0.5,1.19,1.61,0.68,2.47c-0.51,0.87-1.65,1.16-2.53,0.66l-7.42-4.18
						c-0.89-0.5-1.19-1.61-0.68-2.48c0.51-0.87,1.65-1.16,2.53-0.66L950.87,302.96z"/>
				</g>
				<g>
					<path class="st5" d="M948.62,307.19c1.02,0,1.85,0.81,1.85,1.81c0,1-0.83,1.81-1.85,1.81h-8.57c-1.03,0-1.86-0.81-1.86-1.81
						c0-1,0.83-1.81,1.86-1.81H948.62z"/>
				</g>
				<g>
					<path class="st5" d="M948.84,311.95c0.89-0.5,2.02-0.2,2.53,0.66c0.51,0.87,0.21,1.97-0.68,2.47l-7.42,4.18
						c-0.88,0.5-2.02,0.2-2.53-0.66c-0.52-0.87-0.21-1.97,0.67-2.47L948.84,311.95z"/>
				</g>
				<g>
					<path class="st5" d="M951.46,315.97c0.51-0.86,1.64-1.16,2.53-0.66c0.89,0.5,1.19,1.61,0.68,2.48l-4.28,7.25
						c-0.52,0.87-1.65,1.16-2.54,0.66c-0.88-0.5-1.19-1.61-0.68-2.47L951.46,315.97z"/>
				</g>
				<g>
					<path class="st5" d="M955.79,318.17c0-1,0.83-1.81,1.86-1.81c1.02,0,1.85,0.81,1.85,1.81v8.37c0,1-0.83,1.81-1.85,1.81
						c-1.03,0-1.86-0.81-1.86-1.81V318.17z"/>
				</g>
				<g>
					<path class="st5" d="M960.67,317.96c-0.51-0.87-0.21-1.97,0.68-2.47c0.89-0.5,2.02-0.2,2.53,0.66l4.28,7.25
						c0.51,0.87,0.21,1.97-0.68,2.47c-0.88,0.5-2.02,0.2-2.53-0.66L960.67,317.96z"/>
				</g>
				<g>
					<path class="st5" d="M964.78,315.4c-0.89-0.5-1.19-1.61-0.68-2.47c0.51-0.86,1.65-1.16,2.53-0.66l7.42,4.19
						c0.89,0.5,1.19,1.6,0.68,2.47c-0.51,0.86-1.64,1.16-2.53,0.66L964.78,315.4z"/>
				</g>
				<g>
					<path class="st5" d="M967.03,311.17c-1.02,0-1.86-0.81-1.86-1.81c0-1,0.83-1.81,1.86-1.81h8.57c1.02,0,1.85,0.81,1.85,1.81
						c0,1-0.83,1.81-1.85,1.81H967.03z"/>
				</g>
				<g>
					<path class="st5" d="M966.82,306.4c-0.89,0.5-2.02,0.2-2.53-0.66c-0.51-0.86-0.21-1.98,0.68-2.47l7.42-4.19
						c0.89-0.5,2.02-0.2,2.53,0.66c0.51,0.87,0.21,1.98-0.68,2.48L966.82,306.4z"/>
				</g>
				<g>
					<path class="st5" d="M964.19,302.38c-0.51,0.87-1.65,1.16-2.53,0.66c-0.89-0.5-1.19-1.61-0.68-2.47l4.29-7.25
						c0.51-0.87,1.64-1.16,2.53-0.66c0.89,0.5,1.19,1.61,0.68,2.47L964.19,302.38z"/>
				</g>
			</g>
		</g>
	</g>
</g>
<g>
	<path class="st1" d="M863.74,252c-0.2-0.16-0.4-0.34-0.61-0.48c-6.75-4.7-11.47-5.14-18.7-1.74l-0.1,0.08
		c-0.66,0.7-1.29,1.42-1.87,2.15H863.74z"/>
	<path class="st16" d="M852.23,252c0.95-1.58,1.14-3.19,0.3-4.15c-1.22-1.4-4.11-0.88-6.45,1.17c-0.98,0.85-1.82,1.92-2.4,2.99
		H852.23z"/>
	<path class="st5" d="M837.93,225.57c0.01-0.95,0.15-1.97,0.91-2.35c0.31-0.15,0.7-0.18,0.98-0.38c0.46-0.32,0.52-1,0.63-1.61
		c0.11-0.6,0.36-1.24,0.98-1.28c0.59-0.04,1.26,0.49,1.87,0.52c0.9,0.04,1.45-1.01,2.37-0.58c0.38,0.18,0.69,0.58,1.08,0.7
		c0.54,0.17,0.94-0.28,1.48-0.15c0.42,0.1,4.16,1.49,4.3,1.92c0.15,0.43-3.26-0.12-3.33,0.26c-0.14,0.72-0.43,1.42-1.06,1.7
		c-0.74,0.32-1.76-0.01-2.66-0.05c-1.43-0.06-2.67,0.76-2.82,2.16c-0.05,0.46,0.01,0.96-0.01,1.42c-0.03,0.47-0.16,0.93-0.53,1.13
		c-0.33,0.19-0.79,0.13-1.2,0.15c-0.42,0.02-0.85,0.17-0.92,0.57c-0.03,0.19,0.02,0.42-0.02,0.6c-0.11,0.52-0.73,0.41-1.15,0.05
		c-0.42-0.35-0.46-0.68-0.54-1.14C838.05,228,837.92,226.76,837.93,225.57z"/>
	<path class="st16" d="M843.88,231.05h7.44c0.32,0,0.59-0.26,0.59-0.59v-3.96c0-0.64-0.52-1.16-1.16-1.16h-6.87
		c-1.54,0-2.8,1.26-2.8,2.8v0.12C841.08,229.79,842.34,231.05,843.88,231.05z"/>
	<path class="st5" d="M855.78,238.89c-0.38,1.08-0.87,1.97-1.48,2.64c-1.67-1.72-1.54-3.74-1.54-3.74c0.47-0.34,0.79-1.15,0.79-2.09
		c0-1.25-0.59-2.26-1.3-2.25c-0.05,0-1.23-5.8-1.28-5.78l6.5,0.71C858.03,230.59,857.32,234.49,855.78,238.89z"/>
	<g>
		<path class="st16" d="M854.12,233.57c1.05-0.01,1.9,1.02,1.91,2.28c0.01,1.26-0.84,2.29-1.89,2.3c-1.05,0.01-1.9-1.02-1.91-2.28
			C852.23,234.61,853.07,233.58,854.12,233.57z"/>
	</g>
	<g>
		<path class="st16" d="M842.44,225.82c-1.67,1.37-2.75,3.46-2.74,5.81l0.03,5.98c0.02,4.08,2.62,7.13,6.59,7.11
			c3.96-0.02,7.85-3.09,7.83-7.18l-0.03-5.78L842.44,225.82z"/>
	</g>
	<g>
		<path class="st16" d="M852.97,251.97l1.74-14.08c0.1-0.77-0.44-1.48-1.2-1.58l-5.48-0.68c-0.75-0.09-1.45,0.47-1.54,1.24
			l-0.93,14.05l2.95,1.05H852.97z"/>
	</g>
	<path class="st7" d="M846.22,239.34c-0.05,0.47-0.33,1.04-1.46,1.21c0,0-1.67,0.19-1.52-0.92L846.22,239.34z"/>
	<path class="st5" d="M846.04,231.25h1.63c0.24,0,0.43,0.2,0.43,0.43c0,0.24-0.2,0.43-0.43,0.43h-1.63c-0.24,0-0.43-0.2-0.43-0.43
		C845.6,231.44,845.8,231.25,846.04,231.25z"/>
	<path class="st5" d="M839.6,231.25h1.63c0.24,0,0.43,0.2,0.43,0.43c0,0.24-0.2,0.43-0.43,0.43h-1.63c-0.24,0-0.43-0.2-0.43-0.43
		C839.16,231.44,839.36,231.25,839.6,231.25z"/>
	<path class="st20" d="M840.71,233.25c0,0.43,0.22,0.77,0.5,0.77c0.28,0,0.5-0.35,0.5-0.77c0-0.43-0.22-0.77-0.5-0.77
		C840.93,232.48,840.71,232.83,840.71,233.25z"/>
	<path class="st20" d="M846.84,233.37c0,0.43,0.22,0.77,0.5,0.77c0.28,0,0.5-0.35,0.5-0.77s-0.22-0.77-0.5-0.77
		C847.06,232.6,846.84,232.94,846.84,233.37z"/>
	<path class="st0" d="M842.74,235.71l0.06-0.15c0.05,0.33,0.27,0.63,0.62,0.72l0.85,0.24c0.29,0.08,0.56-0.05,0.72-0.27l0.02,0.08
		c0.11,0.5-0.35,0.93-0.84,0.79l-0.85-0.24C842.8,236.76,842.53,236.2,842.74,235.71z"/>
	<path class="st16" d="M842.69,225.69c0,0,3.25-1.93,8.03-0.66l-1.82,1.55L842.69,225.69z"/>
	<path class="st5" d="M839.99,228.41c0,0,1.64-1.49,5.68-0.73c4.04,0.76,2.7,5.45,7.15,6.21l2.17-0.47l-0.76-8.09
		c0,0-8.15-6.09-14.01,0.82L839.99,228.41z"/>
	<path class="st5" d="M857.54,228.6c0,0-1.2-6.21-7.66-7c-6.46-0.79-9.65,4.56-9.65,4.56L857.54,228.6z"/>
</g>
</svg>
